<svg id="Capa_1" data-name="Capa 1" xmlns="http://www.w3.org/2000/svg" viewBox="0 0 364.5 352.68"><defs><style>.cls-1,.cls-5{fill:#81d0d6;}.cls-1{opacity:0.2;}.cls-2{fill:#305c66;}.cls-3{fill:#fff;}.cls-4{fill:#fc7d3d;}.cls-6{fill:#e6e6e6;}.cls-7{fill:#fcb9ac;}.cls-8{fill:#d65e29;}.cls-9{fill:#e8a097;}.cls-10{fill:#d0d1de;}.cls-11{fill:#b8b9cd;}.cls-12{fill:#b74311;}.cls-13{fill:#54a6a8;}</style></defs><circle class="cls-1" cx="188.76" cy="174.89" r="162.43"/><path class="cls-2" d="M306.43,261.41h-230c-6.36,0-11.5-4.64-11.5-10.35V76.47c0-5.72,5.14-10.35,11.5-10.35h230c6.35,0,11.5,4.63,11.5,10.35V251.06C317.93,256.77,312.78,261.41,306.43,261.41Z"/><rect class="cls-3" x="76.45" y="78.39" width="229.99" height="170.75"/><path class="cls-2" d="M183.16,88.68,194,163.36h0l-74.78-10a75.55,75.55,0,0,1,64-64.75"/><path class="cls-4" d="M256.69,121.4l-62.7,42L183.16,88.68A75.51,75.51,0,0,1,256.69,121.4Z"/><path class="cls-5" d="M249.74,214.31q-.56.62-1.11,1.2c-.47.49-.95,1-1.43,1.46s-1,.95-1.45,1.41-1.05,1-1.59,1.45-.95.85-1.44,1.26-.89.75-1.35,1.11q-1.08.87-2.19,1.71l-1.35,1a75.14,75.14,0,0,1-8,5l-1.18.62-1.27.64c-1.26.63-2.54,1.22-3.84,1.76-.43.19-.86.37-1.3.54l-1.3.51c-.43.17-.87.33-1.3.48s-.88.32-1.32.46c-.88.31-1.78.6-2.68.86l-1.28.37-1.33.36c-.45.12-.89.23-1.34.33-1.33.32-2.68.6-4,.85-.93.17-1.86.32-2.8.45a72.57,72.57,0,0,1-7.77.7l-3-74.88,0-.59H194l62.7-42c.21.3.41.61.61.92s.59.91.88,1.37c0,0,0,0,0,0,.65,1,1.27,2.12,1.87,3.2a.91.91,0,0,1,.07.14c.62,1.12,1.21,2.25,1.76,3.4.23.46.45.92.66,1.39s.39.86.58,1.3l.56,1.32c.15.35.29.7.43,1.05a75.66,75.66,0,0,1-14.39,78.78Z"/><path class="cls-6" d="M197.06,238.84h-.22c-.88,0-1.77.05-2.66.05h-1.45c-1.44,0-2.88-.11-4.34-.22l-.84-.06-.81-.08-.51-.05h-.1l-1.71-.2-.35-.05q-3.56-.48-7-1.26c-.77-.18-1.53-.36-2.29-.57l-.66-.17-1.49-.42c-1.24-.37-2.45-.76-3.65-1.18l-.65-.22h0l-1.41-.53-1.42-.56-1.4-.59-.24-.1-1.49-.67-1.54-.73c-1-.49-2-1-3-1.53l-.08-.05-1.44-.81c-.61-.35-1.21-.71-1.81-1.08s-1.19-.75-1.78-1.13-1-.68-1.52-1-1-.7-1.5-1.06-.83-.6-1.23-.91c-1.46-1.1-2.87-2.26-4.24-3.45l-.92-.83a73.68,73.68,0,0,1-5.76-5.83c-.36-.4-.71-.8-1.05-1.21-.11-.12-.21-.24-.31-.37-.33-.39-.65-.78-1-1.18a.1.1,0,0,1-.05-.06c-.36-.44-.71-.89-1.06-1.34-.75-1-1.48-2-2.18-3-.27-.39-.54-.78-.79-1.18l-.34-.5-.27-.43-.16-.25-.53-.84c-.23-.37-.46-.74-.68-1.11l-.65-1.12-.36-.63-.28-.5-.45-.83c-.31-.56-.6-1.13-.88-1.7s-.49-1-.73-1.5a.09.09,0,0,1,0-.05c-.23-.49-.46-1-.68-1.48a.36.36,0,0,1,0-.09c-.45-1-.87-2-1.26-3a.87.87,0,0,1-.07-.17c-.19-.47-.37-.93-.53-1.4a.36.36,0,0,1,0-.09,1.59,1.59,0,0,1-.07-.2c-.14-.4-.29-.8-.43-1.19l0-.09h0l-.17-.48c-.15-.45-.3-.9-.44-1.34l-.37-1.21c0-.06,0-.12-.05-.18s0-.15-.07-.23l-.45-1.58a.44.44,0,0,1,0-.1c-.08-.29-.16-.59-.23-.88s-.1-.37-.15-.56l-.06-.26c-.1-.41-.19-.81-.28-1.22a.29.29,0,0,1,0-.09c0-.12,0-.24-.08-.36l-.27-1.3a1.16,1.16,0,0,1,0-.18c-.06-.3-.11-.6-.17-.9s-.09-.43-.12-.65-.09-.54-.14-.82-.09-.54-.13-.81c-.07-.47-.14-.93-.2-1.4,0-.1,0-.2,0-.3a1.37,1.37,0,0,1,0-.19c-.07-.51-.13-1-.18-1.52l0-.25c-.05-.43-.09-.87-.12-1.31,0-.16,0-.33,0-.49,0-.46-.07-.93-.1-1.4,0-.12,0-.23,0-.35,0-.53-.06-1.07-.07-1.61s0-1.07,0-1.61c0-.3,0-.6,0-.9V163c0-.36,0-.73,0-1.09s0-.91,0-1.36l.06-1.36c0-.12,0-.23,0-.34l0-.39a.91.91,0,0,1,0-.17l.09-1.15c0-.46.08-.93.13-1.4,0-.17,0-.35,0-.53.07-.61.14-1.21.22-1.82l74.78,10h0l.08.6Z"/><path class="cls-5" d="M163.49,182.27,93.44,145.6a79,79,0,0,0-2,69.44Z"/><path class="cls-2" d="M201.6,170.84l76-13.77a78.79,78.79,0,0,1,1.16,9.92,76.69,76.69,0,0,1-8.73,39.72Z"/><path class="cls-7" d="M95.15,143.9c-.8-.33-3.66.75-5.35,1.85a22,22,0,0,1-4.72,1.74,17.18,17.18,0,0,1,.35,2.78c0-.05,2.63-.46,2.9-.55.89-.28,1.58-1,2.6-.7a6.88,6.88,0,0,1,1.39.68c.53.29,1.84,1.6,2.49,1.35,1-.38-.61-1.5-.79-1.82s-.16-1.31.55-1.12c1,.26,2.67,1.43,3.73.94,1.33-.62-2.82-1.8-3.52-2.25,1.12.57,4.81,1.7,5.11,1,.58-1.24-3.33-1.89-4.41-2.43a5.34,5.34,0,0,0,3.08.66C100,145.6,95.94,144.24,95.15,143.9Z"/><path class="cls-7" d="M91.13,216c-.83.25-3.55-1.16-5.1-2.45a21.36,21.36,0,0,0-4.48-2.27,18.3,18.3,0,0,0,.67-2.72s2.55.76,2.81.88c.86.38,1.46,1.15,2.5,1A7.73,7.73,0,0,0,89,209.9c.57-.22,2-1.37,2.63-1,.93.49-.78,1.42-1,1.71s-.32,1.29.42,1.18c1-.14,2.81-1.11,3.8-.5,1.25.76-3,1.46-3.75,1.83,1.18-.44,5-1.13,5.2-.46.43,1.3-3.53,1.5-4.67,1.9a5.34,5.34,0,0,1,3.14-.29C96.1,214.87,92,215.75,91.13,216Z"/><path class="cls-4" d="M45.63,176.83a7.37,7.37,0,0,0,9.56-.41c4.39-3.95,12.58-11.26,15.24-13.3,3.7-2.85,20.31-13.26,20.31-13.26l-2.5-4.69s-20.7,9.16-23.62,11.46S44.7,169.14,44,173.26A3.77,3.77,0,0,0,45.63,176.83Z"/><path class="cls-8" d="M45.63,176.83a7.37,7.37,0,0,0,9.56-.41c4.39-3.95,12.58-11.26,15.24-13.3,3.7-2.85,20.31-13.26,20.31-13.26l-2.5-4.69s-20.7,9.16-23.62,11.46S44.7,169.14,44,173.26A3.77,3.77,0,0,0,45.63,176.83Z"/><path class="cls-7" d="M48.63,156.51c.11.12.2.24.32.35a21.85,21.85,0,0,0,3.33,2.9c.74.5,1.89.82,2.53,1.34.26.2.53.39.8.56-.37,2.08-1.29,7.55-1.15,9.68,0,0-6.65-.47-9.07-3.16C45.39,168.18,48.15,160.78,48.63,156.51Z"/><path class="cls-9" d="M55.26,163.72c.14-.82.26-1.55.35-2.06-.27-.17-.54-.36-.8-.56-.64-.52-1.79-.84-2.53-1.34a21.85,21.85,0,0,1-3.33-2.9c-.12-.11-.21-.23-.32-.35-.48,4.27-3.24,11.67-3.24,11.67a8.62,8.62,0,0,0,3.76,2.12A7.67,7.67,0,0,1,55.26,163.72Z"/><path class="cls-2" d="M52.31,275.21s.18,6.63,1.22,7.53,14.23,1.31,15.37.1.47-3.25-2.37-4c-3-.84-4.52,0-6.42-.81s-1.4-3.79-1.4-3.79Z"/><path class="cls-2" d="M19.59,275s-1,6.46,0,7.41,14.44,2,15.62.83S35.79,280,33,279.1c-3-1-4.45-.35-6.39-1.05-1.52-.56-.49-3.64-.49-3.64Z"/><path class="cls-10" d="M29.35,237.8a197.18,197.18,0,0,1,2.75-36.87,16.82,16.82,0,0,1,6.59,1.27c4,1.83,8.07,3.59,12.12,5.36-3.29,6.79-10.48,29-11.34,33.62-1.08,5.78-13.15,35.24-13.15,35.24L19,275.5C19.13,270.75,29.37,239.39,29.35,237.8Z"/><path class="cls-11" d="M44.33,204.82a65.45,65.45,0,0,0,6.52,2.65c-3.23,6.67-9.1,25.12-10.43,30-1-3.09-6-10.57-7.88-18.75a43.63,43.63,0,0,1-.62-16.69V202C36,202.26,40,202.71,44.33,204.82Z"/><path class="cls-10" d="M38.87,203.82c2.85,1,8,2.34,11.94,3.74C53.53,214.44,61.58,230.69,62,238c.46,8.11-2.35,38.82-2.35,38.82H51.29s-.77-34.62-1.94-36.84c-3.86-7.33-8.13-13.15-10.55-17.71-4.07-7.66-5.45-12.57-6.16-16.16-.32-1.58-1.7-6.88,1-8.54C35.84,198.23,36.49,203,38.87,203.82Z"/><path class="cls-4" d="M53.85,209.22s-7,2.84-13.93,2.17c-5.12-.49-7.77-.57-10.76-2.18,0,0,3.2-25,6.89-32.82S45.81,167,45.81,167s4.78,2.78,8.68,2.72c0,0-.09,15.33-.39,21.45S53.85,209.22,53.85,209.22Z"/><path class="cls-8" d="M54.19,188.94c0-.67,0-1.38.06-2.14a2.62,2.62,0,0,1,0-.28c0-.72,0-1.46.05-2.23v-.38c0-.85,0-1.71,0-2.58v0a4.9,4.9,0,0,1-.94-.06,21.61,21.61,0,0,1-6.68-3.09c-.35-.21-.73-.38-1.1-.56-.43,3.28,1,7.28,1.68,9.88,1.76,7.21,2.72,16.33,1.21,23.3a37.23,37.23,0,0,0,5.32-1.54s-.05-11.92.25-18c0-.54,0-1.17.07-1.84C54.18,189.21,54.18,189.08,54.19,188.94Z"/><path class="cls-4" d="M83.3,213.93l2.93-5.82s-14.56-9.32-19.88-14.69-11.08-16.3-15.13-17-8.15,1.55-5.8,7.2,14.26,13.13,16.68,15.62S80.92,212.59,83.3,213.93Z"/><path class="cls-7" d="M46.63,145.17s10.74-1.23,11.49.58.9,6.89,1.6,8,2,2.36,1.49,3.06-1,.52-1.29,1.3-.18,5.17-1.6,5.83S49.66,164.17,47,160,41.44,145.55,46.63,145.17Z"/><path class="cls-2" d="M43.94,146.18l7.12,3.3a16,16,0,0,0,1.83,7.78s-.64,1-1.32.43a2.64,2.64,0,0,1-1.26-1.89c-.16-1-.78-3.81-2.64-2.44s.1,3,1,3.4c0,0,1.51,5.41-1.36,5,0,0-2.65-1.68-4.93-8.18S42.16,145,43.94,146.18Z"/><path class="cls-2" d="M61.23,143.81s2.55,3.67-3.37,6.12-14.44-4-14.44-4,.22-3.22,4.94-4.59c3.53-1,6.84-.89,8.64,1.16C60.06,146,61.23,143.81,61.23,143.81Z"/><path class="cls-7" d="M314.49,158.93c-.1.12-.19.24-.3.35a21.27,21.27,0,0,1-3.12,2.88c-.7.5-1.8.84-2.4,1.36a8.12,8.12,0,0,1-.75.56c.41,2,1.45,7.22,1.37,9.28,0,0,6.39-.64,8.64-3.29C317.93,170.07,315.07,163,314.49,158.93Z"/><path class="cls-9" d="M314.63,159.86c-.1.11-.19.23-.3.34a20.81,20.81,0,0,1-3.12,2.89c-.7.49-1.8.84-2.4,1.35a6.74,6.74,0,0,1-.75.57c.09.43.21,1,.34,1.69h.08a7.59,7.59,0,0,1,7.66,5.74,6.25,6.25,0,0,0,1.93-1.44S315.21,164,314.63,159.86Z"/><path class="cls-2" d="M304.76,274.24s.33,6.38-.6,7.32-13.55,2.33-14.73,1.25-.69-3.07,2-4c2.84-1,4.33-.36,6.1-1.26s1.05-3.74,1.05-3.74Z"/><path class="cls-2" d="M334.81,274.13s1.77,6,.93,7.06-13.53,3.69-14.8,2.72-1-3,1.6-4.2c2.74-1.29,4.28-.74,6-1.8s.72-3.82.72-3.82Z"/><path class="cls-4" d="M333.83,237.29a189.82,189.82,0,0,0-1.73-35.53,16.18,16.18,0,0,0-6.36,1.06c-3.92,1.66-7.86,3.25-11.79,4.85,3,6.61,9.35,28.13,10.06,32.61.89,5.58,4.79,36.13,4.79,36.13l7.2-.24C336,271.6,333.76,238.82,333.83,237.29Z"/><path class="cls-12" d="M320.24,205.2a65.24,65.24,0,0,1-6.33,2.39c2.93,6.49,9.22,27.83,10.07,32.54,1.07-2.94,5.22-13.43,7.26-21.26a42,42,0,0,0,1-16v-.06C328.29,203,324.47,203.28,320.24,205.2Z"/><path class="cls-4" d="M325.83,201.54c-2.76.87-7.76,2.11-11.55,3.38-2.74,6.57-10.13,25.52-11.51,32.46-1.91,9.61-5.09,38.08-5.09,38.08l8.12,1.07s8.15-38.25,9.32-40.37c3.84-7,8-12.5,10.45-16.85,5.83-10.51,6.2-15.64,7-19.35C330.41,200.53,328.13,200.81,325.83,201.54Z"/><path class="cls-7" d="M276.63,153.17c.77.09,2.54,2.19,3.39,3.8A19.12,19.12,0,0,0,283,160.4a15.47,15.47,0,0,0-1.49,2s-1.86-1.51-2-1.7c-.57-.61-.81-1.45-1.73-1.69a7.12,7.12,0,0,0-1.39-.07c-.54,0-2.14.45-2.54,0-.6-.72,1.14-.9,1.42-1.07s.7-1,.06-1.13c-.89-.23-2.72,0-3.34-.89-.77-1.07,3-.18,3.75-.22-1.13-.05-4.52-.78-4.47-1.42.09-1.23,3.44,0,4.52,0a4.82,4.82,0,0,1-2.7-.84C272.12,152.4,275.86,153.09,276.63,153.17Z"/><path class="cls-5" d="M325.94,181.81a7.09,7.09,0,0,0-5-7.72c-5.41-1.72-15.47-5-18.46-6.16-4.17-1.69-20.89-10.39-20.89-10.39l-2.67,4.35s17.68,12.71,21,14,20.08,10.43,23.84,9A3.63,3.63,0,0,0,325.94,181.81Z"/><path class="cls-5" d="M325.94,181.81a7.09,7.09,0,0,0-5-7.72c-5.41-1.72-15.47-5-18.46-6.16-4.17-1.69-20.89-10.39-20.89-10.39l-2.67,4.35s17.68,12.71,21,14,20.08,10.43,23.84,9A3.63,3.63,0,0,0,325.94,181.81Z"/><path class="cls-5" d="M311,209.76a56,56,0,0,0,13.15.09c4.91-.62,9.38-2.43,10.41-4.29,0,0-3.59-20.41-7.37-27.87s-9.65-8.74-9.65-8.74-4.51,2.81-8.27,2.86c0,0,.53,14.74,1,20.61S311,209.76,311,209.76Z"/><path class="cls-13" d="M316.62,188.65c.54-2.52,1.84-6.41,1.34-9.55-.35.19-.71.37-1,.58a20.76,20.76,0,0,1-6.33,3.16,4.5,4.5,0,0,1-.9.08c.16,3.59.35,7.21.53,9.5.46,5.88.74,17.34.74,17.34s1.83.26,4.53.38C313.82,203.49,315.13,195.64,316.62,188.65Z"/><path class="cls-7" d="M317.39,152.2s-3-5.58-6.59-5.2-7.14,1.43-7.57,2.85.09,4.53-.78,6-2.61,3.5-2,4.07a20.17,20.17,0,0,1,1.64,1.48c.13.26,1.45,4.91,2.23,5.37s7.64-2.56,8.63-4.68S317.86,155.87,317.39,152.2Z"/><path class="cls-2" d="M311.89,147.17s-2.9,8.08-10.13,7.4c0,0-1.77-3.29,0-5.87C303.09,146.7,307.2,144.83,311.89,147.17Z"/><path class="cls-2" d="M334.51,176.71c-.37-4-2.36-6.35-5.25-8.93a21.61,21.61,0,0,1-7-10.85c-1.15-4.16-.59-8.15-4.57-11-3-2.14-7.7-.93-9.63.61a2.32,2.32,0,0,1-.06.44s-2.68,2.54,1.62,6.16a9.36,9.36,0,0,1,2.38,3.77,2.65,2.65,0,0,1,.9-1,1,1,0,0,1,1.54.11c.85.87-.42,2.48-1.23,2.6-.14,0-.34.22-.56.46.44,1.19,1.28,4.4,1.9,10.92a8.32,8.32,0,0,0,2.09,4.47c1.21,1.52,2.09,1.58,2.8,3.4s-.78,6.57,2.91,8.76c1.64,1,5.55.76,6.4.46C333.81,185.29,335,181.68,334.51,176.71Z"/><path class="cls-7" d="M276.12,202.09a5.77,5.77,0,0,1-2.94.43,3.24,3.24,0,0,0-1.38-.11,7.09,7.09,0,0,1-1.6,0,2.84,2.84,0,0,0-1.57.18c-.57.33.16.75.69,1s2.46-.24,2.77.33-2,1-2.47,1.09c-1.09.19-1.63-.45-2.59-.76-.55-.18-.86-.09-.66.55.15.48.71.69,1.14.87a5.92,5.92,0,0,0,2.88.49,7,7,0,0,1-2.73-.18c-.51-.13-2.57-1.07-2.85-.29-.55,1.57,4.52,2.19,5.4,1.88a8,8,0,0,1-2.76,0c-.55-.06-1.83-.25-1.39.63.65,1.29,3.52.5,4.87.38a9.53,9.53,0,0,1-2.58.54c-1.15.19-.61,1,.6,1a14.33,14.33,0,0,0,1.75-.19,8.91,8.91,0,0,0,5.09-2.68c.61-.55,2.3-.91,2.38-1.61C278.33,204.25,276.83,203,276.12,202.09Z"/><path class="cls-5" d="M276.33,207.46,274,202.13s15-8.7,21-13.34,13-14.72,17.14-14.89,7.87,2.57,4.82,7.87S301.18,193,298.47,195.11,278.85,206.44,276.33,207.46Z"/></svg>