<svg id="Capa_1" data-name="Capa 1" xmlns="http://www.w3.org/2000/svg" viewBox="0 0 1920 1080"><defs><style>.cls-1,.cls-2{fill:#81d0d6;}.cls-1{opacity:0.2;}</style></defs><path class="cls-1" d="M1158.5,1076.88H1.46V439.45a586.18,586.18,0,0,0,64.66-53q6.13-5.73,12.09-11.6c64.66-63.44,118.76-137,183.18-200.67S404.08,55.42,493.69,42.2,684.77,67.27,723.94,148.93c28.88,60.21,20.18,131.8,0,195.45S673,468.21,657.9,533.21s-11.75,139.15,30.47,190.87c83.74,102.55,259,60,363.46,141.38,52,40.51,77.94,105.63,96,169C1151.81,1048.36,1155.47,1062.56,1158.5,1076.88Z"/><path class="cls-2" d="M927.36,1076.88h-815c1.13-2.11,2.32-4.19,3.67-6.2,4-6.08,8.7-11.76,13.09-17.59,6.14-8.24,12.25-16.36,19.48-23.72a190,190,0,0,1,49.46-35.47,232.64,232.64,0,0,1,58.4-20.15c2.38-.49,4.73-1,7.11-1.35,61.34-10.62,124.14-.7,185.68,8.67S574,999.21,634.88,986.45c52.06-10.93,102.86-37.49,155.55-30.17,37,5.16,70.22,27.08,94.89,55.11C902.51,1031,916,1053.4,927.36,1076.88Z"/><path class="cls-1" d="M1921.46,311.68v765.2H1415c-26.37-15.79-53.58-30.44-79.71-46.59-47.5-29.34-93.39-65.58-118.09-115.65s-23-116.59,16.61-155.94c40.61-40.27,105.08-41.1,156.83-65.46,73.49-34.59,114.64-112.87,147.28-187.24s65.12-154.35,131.3-201.46c4.74-3.36,9.62-6.53,14.63-9.46a212.76,212.76,0,0,1,148.43-24.89C1865.8,277,1893.55,294.13,1921.46,311.68Z"/></svg>