<svg id="Capa_1" data-name="Capa 1" xmlns="http://www.w3.org/2000/svg" viewBox="0 0 350 350"><defs><style>.cls-1,.cls-11{fill:#81d0d6;}.cls-1{opacity:0.2;}.cls-2{fill:#305c66;}.cls-3{fill:#fefefe;}.cls-4{fill:#e5e6ed;}.cls-5{fill:#b3eef6;}.cls-6{fill:#fc7d3d;}.cls-7{fill:#fff;}.cls-8{fill:#d0d1de;}.cls-9{fill:#fcb9ac;}.cls-10{fill:#e8a097;}.cls-12{fill:#54a6a8;}</style></defs><circle class="cls-1" cx="179.5" cy="179.34" r="162.43"/><polygon class="cls-2" points="204.69 298.01 155.63 298.01 159.66 238.87 200.66 238.87 204.69 298.01"/><path class="cls-2" d="M211.12,288.54a3.19,3.19,0,0,0-2.66-1.42H151.87a3.22,3.22,0,0,0-2.67,1.42l-7.41,11.06a3.2,3.2,0,0,0,2.66,5h71.42a3.2,3.2,0,0,0,2.66-5Z"/><rect class="cls-2" x="46.24" y="75.04" width="267.85" height="179.55" rx="13.81"/><rect class="cls-3" x="58.57" y="86.94" width="243.18" height="153.9"/><rect class="cls-4" x="64.64" y="103.7" width="231.03" height="137.14"/><rect class="cls-5" x="64.64" y="103.7" width="231.03" height="11.35"/><rect class="cls-3" x="212.71" y="152.05" width="71.75" height="9.47"/><rect class="cls-3" x="212.71" y="168.79" width="71.75" height="9.47"/><rect class="cls-3" x="212.71" y="185.54" width="71.75" height="9.47"/><rect class="cls-3" x="85.95" y="126.43" width="71.75" height="9.47"/><rect class="cls-3" x="85.95" y="143.17" width="71.75" height="9.47"/><path class="cls-6" d="M154.36,146.1H18.9a8.59,8.59,0,0,0-8.59,8.59v43.68A8.6,8.6,0,0,0,18.9,207h84.86l32.33,27.48L120.74,207h33.62a8.6,8.6,0,0,0,8.59-8.59V154.69A8.59,8.59,0,0,0,154.36,146.1Z"/><rect class="cls-7" x="61.35" y="157.88" width="91.29" height="5.26"/><rect class="cls-7" x="61.35" y="168.6" width="91.29" height="5.26"/><rect class="cls-7" x="61.35" y="179.33" width="91.29" height="5.26"/><rect class="cls-7" x="61.35" y="190.05" width="60.59" height="5.26"/><path class="cls-2" d="M54.13,175.59A17.62,17.62,0,1,1,36.51,158,17.61,17.61,0,0,1,54.13,175.59Z"/><ellipse class="cls-7" cx="36.51" cy="170.35" rx="4.97" ry="5.13"/><path class="cls-7" d="M36.6,176.25h-.17a8.82,8.82,0,0,0-8.83,8.82v5.63a17.15,17.15,0,0,0,17.83,0v-5.63A8.82,8.82,0,0,0,36.6,176.25Z"/><path class="cls-8" d="M318.71,32.75H183.25a8.58,8.58,0,0,0-8.59,8.59V85a8.59,8.59,0,0,0,8.59,8.59h39.22L212,121.09l27.48-27.48h79.27A8.59,8.59,0,0,0,327.29,85V41.34A8.58,8.58,0,0,0,318.71,32.75Z"/><rect class="cls-7" x="225.7" y="44.53" width="91.29" height="5.26"/><rect class="cls-7" x="225.7" y="55.25" width="91.29" height="5.26"/><rect class="cls-7" x="225.7" y="65.97" width="91.29" height="5.26"/><rect class="cls-7" x="225.7" y="76.7" width="60.59" height="5.26"/><path class="cls-2" d="M218.47,62.24a17.61,17.61,0,1,1-17.61-17.61A17.61,17.61,0,0,1,218.47,62.24Z"/><path class="cls-7" d="M205.83,57a5,5,0,1,1-5-5.12A5.05,5.05,0,0,1,205.83,57Z"/><path class="cls-7" d="M201,62.9h-.18A8.82,8.82,0,0,0,192,71.72v5.63a17.13,17.13,0,0,0,17.82,0V71.72A8.82,8.82,0,0,0,201,62.9Z"/><rect class="cls-6" x="219.08" y="210.4" width="69.55" height="22.07" rx="7.91"/><path class="cls-9" d="M188.36,140.35a39.93,39.93,0,0,1-10.87.48,15.94,15.94,0,0,1-3.81-.83c.17,4.53.21,15.13-3,19.52,0,0,1.16,5.22,10.57,5.37s10.48-6.95,10.48-6.95S188.55,147,188.36,140.35Z"/><path class="cls-10" d="M170.72,159.69a2,2,0,0,0,.14.37.08.08,0,0,1,0,.05c.08.16.17.34.29.55l0,0a7.22,7.22,0,0,0,.48.67l.08.1a7.68,7.68,0,0,0,1.71,1.48l.12.08a10.67,10.67,0,0,0,1.27.67l.19.08a13.4,13.4,0,0,0,1.66.56,13.26,13.26,0,0,1,2.77-6.69,16.66,16.66,0,0,1,10.6-6.15,63.62,63.62,0,0,1-1.71-11.13,39.93,39.93,0,0,1-10.87.48,15.94,15.94,0,0,1-3.81-.83c.17,4.53.21,15.13-3,19.52a.9.9,0,0,0,0,.12A.17.17,0,0,0,170.72,159.69Z"/><path class="cls-9" d="M175.31,115s15.44-4.56,17.89-.82,2,9.77,3,12.43,4.85,5.47,5.26,6.53-2.57,3.09-3,3.93-2,9.56-4.65,11.49-17-3.19-20.6-10S171.18,117.18,175.31,115Z"/><path class="cls-2" d="M182.34,117.66a15.33,15.33,0,0,1-1.62,8c-.93,1.85,3.68,6.75,2.4,9-.86,1.49-2.1,1.11-3.24-1.82a4.43,4.43,0,0,0-2.49-2.13c-3.78-1.64-4.66,4.12-1.27,5.83,2.37,1.19,1,7.2,1,7.2-2.55,2-11-.41-10-6.55.59-3.91.85-5.4-.52-6.35-2.48-1.73-5.71-6.51-1.63-10.57,5.63-5.59.5-7.37,7-9S183.77,113.59,182.34,117.66Z"/><path class="cls-2" d="M170.83,114.37c.37-1.42,2.93-3.25,4.2-4.19a18.74,18.74,0,0,1,6.66-3,17.32,17.32,0,0,1,7.41-.25c2.11.41,3.88,1.34,6,1.59,2,.23,4,.14,5.38-1a13.86,13.86,0,0,1,.27,4.88c-.35,1.92-1.62,3.64-2.78,5.36-3.13,4.67-11.64,7.26-17.65,4.79-2.9-1.19-5.5-2.22-6.92-4.74A15,15,0,0,0,170.83,114.37Z"/><path class="cls-2" d="M253.19,124.43l14.92,33.11s-4.37,4.91-5.83,3.82-23.83-28-26-29.35S253.19,124.43,253.19,124.43Z"/><path class="cls-6" d="M216.2,128.55s.06,9.52,5.88,11.71c0,0,29.84-12.36,35.84-13.55s27.83-1.37,27.83-1.37l-22-39.29s-10.55,21.1-20.19,28S216.2,128.55,216.2,128.55Z"/><path class="cls-2" d="M235.55,134.8c2.36-.94,4.82-1.91,7.25-2.84-3.66-4.12-5.56-9.86-6.28-13.47-2.26,1.3-4.61,2.55-6.88,3.71A27.29,27.29,0,0,0,235.55,134.8Z"/><path class="cls-11" d="M293.88,96.15c6.21,15,4,30.14-4.91,33.84s-21.19-5.45-27.41-20.44-4-30.14,4.91-33.84S287.66,81.16,293.88,96.15Z"/><path class="cls-2" d="M292.67,96.65c5.29,12.75,3.42,25.64-4.17,28.79s-18-4.64-23.32-17.39-3.41-25.64,4.18-28.79S287.39,83.9,292.67,96.65Z"/><path class="cls-9" d="M251.23,148.27c-.71-.43-.51-3.09-.37-3.79.23-1.08,1-2.5.23-3.53-1.33-1.84-3.21,3.1-3.45,3.81a5.18,5.18,0,0,0-.34,3.29,13,13,0,0,0,2.85,4.31c-.13.5-.29,1-.47,1.55a31.85,31.85,0,0,1,3.59,1.82c1.44.83,1.37,1.86,2.71,2.78l1.35-3.09C256.77,154.71,252.41,149,251.23,148.27Z"/><path class="cls-9" d="M260.79,137.44c-1.29-1.39-3.3-.86-4.86.28-1.14.83-4.42,3.49-3.54,5.41.74,1.6,5-1.94,5-1.94-1.56,1.34-4.45,2.41-3.73,3.74.82,1.5,4.5-.63,5.31-1.22-.83.21-4.94,2.71-3.3,4,1.13.9,4.16-1,5.07-1.62-1.22.37-2.87,1.45-2.55,3.13.53.92,2.36.31,3.39-.1,1.54-.63,3-.87,3.11-2.79a7,7,0,0,0,.06-1,10.62,10.62,0,0,0-1.36-4.17A18.2,18.2,0,0,0,260.79,137.44Z"/><path class="cls-9" d="M103.74,148.43a16.85,16.85,0,0,1-1.73-3.67c-.38-1.1-.66-2.23-1-3.32a8.8,8.8,0,0,1-.74-3.26,9.53,9.53,0,0,1,.4-2c.22-.85.53-1.67.71-2.52s.08-1.5.23-2.26a13.17,13.17,0,0,1,1.31-4.17,15.09,15.09,0,0,1,1.92-2.64,9.94,9.94,0,0,1,1.13-1.21,3,3,0,0,0,1-1.28,1.23,1.23,0,0,0-.89-1.65,4.56,4.56,0,0,0-4.23,1.39c-1.12,1.54-1.65,3.44-2.9,4.93-3.83,4.56-7.42-.81-11.89-2.74a26.84,26.84,0,0,1-4.31-2.78c-.8-.6-4.23-3.86-5.85-3-1.19.62,1.15,3.36,2.27,4,.45.26,4.27,3.37,4.77,3.52-1.12-.19-4.06-2.13-6.41-4-1.7-1.33-3.34-2.63-4.26-1.88-2.84,2.33,8.31,7.66,9.18,8.15-.93.07-9.66-6.11-10.48-3.83-.46,1.25,1.35,2.48,2.83,3.29,1.86,1,5,1.73,5.68,2.28-1.31.44-7.09-3.49-7.1-1.09,0,1.57,3.59,2.75,4.94,3.16s5.48,3.2,6.78,3.82c4.31,2,6.09,1.82,7.79,4.4,1.09,1.65,3,10.34,4.58,13.66Z"/><path class="cls-11" d="M248.82,152.73c-3.84,11.19-12.07,31-14.78,29.61-5.1-2.6-16.06-11.57-24.25-17.05a57.53,57.53,0,0,0-9.53-5.49l5.71,27s27,20.52,32.69,17.38c4.45-2.48,15.41-33.69,19.28-46.62C257.94,157.6,248.89,152.78,248.82,152.73Z"/><path class="cls-12" d="M222.06,191.29c-3.05-3.95-14.67-15.34-17.82-17.76l.91,12.82s27.25,20.48,33.28,17.92C233.23,200.93,225.76,196.1,222.06,191.29Z"/><path class="cls-11" d="M154.4,161.23s-33.24,13.42-36.85,12.47-15.67-35.21-15.67-35.21l-10.07,4.09s10.75,49.43,17.67,51.74,48.18-9.61,48.18-9.61A69.73,69.73,0,0,0,154.4,161.23Z"/><path class="cls-12" d="M126.05,191.24c-2.93,1-5.91,2.09-8.91,3,14.1-1.87,40.52-9.5,40.52-9.5a73.05,73.05,0,0,0-.72-12.56C148.75,181,137.11,187.27,126.05,191.24Z"/><path class="cls-8" d="M276.92,105.78c-1.52-4.69-6.09-7.41-10.22-6.07a7,7,0,0,0-3.43,2.49,41.52,41.52,0,0,0,1.91,5.85,40,40,0,0,0,5.13,8.94,6.91,6.91,0,0,0,1.9-.3C276.33,115.35,278.44,110.47,276.92,105.78Z"/><path class="cls-11" d="M154.46,201.66c-1.17,11.54-2.09,35.79-2.78,39.18h54.54c1-18.12.64-44.35-.25-54-1.57-16.82-5.71-27-5.71-27s-4.07-1.29-8.9-3.15c0,0-10,6.14-19.38.09,0,0-16.88,4-18.92,5C151.37,162.51,155.71,189.35,154.46,201.66Z"/><path class="cls-12" d="M168.88,217.46a42.87,42.87,0,0,0-3.12-15.74,14.51,14.51,0,0,1-1-3.53,23.23,23.23,0,0,0-2.31-8.05c-1.22-1.85-2.45-3.68-3.66-5.53-.67-.91-1.37-1.87-2.14-3a51,51,0,0,1-3.34-5.89c.64,8.47,1.78,19.78,1.15,25.94-1.17,11.54-2.09,35.79-2.78,39.18h25.38c-3.26-4.2-5.22-9.31-7.13-15.54A27.92,27.92,0,0,1,168.88,217.46Z"/></svg>