<svg id="Capa_1" data-name="Capa 1" xmlns="http://www.w3.org/2000/svg" viewBox="0 0 305.41 67.5"><defs><style>.cls-1{fill:#333;}.cls-2{fill:#fff;}.cls-3{fill:#fc7d3d;}</style></defs><rect class="cls-1" x="7.56" y="36.79" width="6" height="1"/><path class="cls-1" d="M274.23,37.79H262.38v-1h11.85Zm-23.7,0H238.68v-1h11.85Zm-23.69,0H215v-1h11.85Zm-23.7,0H191.29v-1h11.85Zm-23.7,0H167.59v-1h11.85Zm-23.7,0H143.89v-1h11.85Zm-23.7,0H120.2v-1H132Zm-23.69,0H96.5v-1h11.85Zm-23.7,0H72.8v-1H84.65Zm-23.7,0H49.1v-1H61Zm-23.7,0H25.41v-1H37.25Z"/><rect class="cls-1" x="286.08" y="36.79" width="6" height="1"/><circle class="cls-2" cx="149.82" cy="37.29" r="17.9"/><path class="cls-3" d="M149.82,59.68a22.4,22.4,0,1,1,22.39-22.39A22.43,22.43,0,0,1,149.82,59.68Zm0-35.79a13.4,13.4,0,1,0,13.39,13.4A13.41,13.41,0,0,0,149.82,23.89Z"/></svg>