<svg xmlns="http://www.w3.org/2000/svg" viewBox="0 0 351 345.86"><defs><style>.cls-1{isolation:isolate;}.cls-12,.cls-2{fill:#81d0d6;}.cls-2{opacity:0.2;}.cls-3{fill:#305c66;}.cls-4{fill:#fff;}.cls-5{fill:#616161;}.cls-6{fill:#00bad1;}.cls-7{fill:#00547a;opacity:0.32;mix-blend-mode:multiply;}.cls-8{fill:#e8a097;}.cls-9{fill:#fcb9ac;}.cls-10{fill:#d0d1de;}.cls-11{fill:#b8b9cd;}.cls-13{fill:#e5e6ed;}.cls-14{fill:#fd425f;}</style></defs><g class="cls-1"><g id="Capa_1" data-name="Capa 1"><circle class="cls-2" cx="176.88" cy="173.43" r="162.43"/><polygon class="cls-3" points="194.73 282.86 147.77 282.86 151.63 226.25 190.87 226.25 194.73 282.86"/><path class="cls-3" d="M200.89,273.79a3.08,3.08,0,0,0-2.55-1.36H144.17a3.06,3.06,0,0,0-2.55,1.36l-7.1,10.59a3.07,3.07,0,0,0,2.55,4.78h68.36a3.07,3.07,0,0,0,2.55-4.78Z"/><rect class="cls-3" x="43.05" y="69.42" width="256.4" height="171.87" rx="13.22"/><rect class="cls-4" x="54.86" y="80.81" width="232.79" height="147.32"/><path class="cls-5" d="M257.23,271.86c-27.05-5-58.58-11-58.67-.49-.08,9.9,11.91,17.58,22.26,22.48,5.62-2.14,12-2.55,17.94-3.47,10.6-1.64,21,.05,31.6,0a42.45,42.45,0,0,0,16.9-12.51S278.07,275.72,257.23,271.86Z"/><path class="cls-6" d="M234.45,290.63c.86.44-9.48,5.33-8.66,5.74,4.43,1.39,48,1.64,52,.61,6.9-1.78-12.81-10.35-5.93-11.79,11.33-8,17.69-18.48,11.56-19.79-6.92-1.48-17.73,2.17-24.72,2.9-5.32.56-8.41.91-13.47-.85l-17-1.87c-17.44,3.46-21,9.74-21.22,9.66,0,2.49,12.73,7.62,24.14,13.66A12.35,12.35,0,0,1,234.45,290.63Z"/><path class="cls-7" d="M234.45,290.63c.86.44-9.48,5.33-8.66,5.74,4.43,1.39,48,1.64,52,.61,6.9-1.78-12.81-10.35-5.93-11.79,11.33-8,17.69-18.48,11.56-19.79-6.92-1.48-17.73,2.17-24.72,2.9-5.32.56-8.41.91-13.47-.85l-17-1.87c-17.44,3.46-21,9.74-21.22,9.66,0,2.49,12.73,7.62,24.14,13.66A12.35,12.35,0,0,1,234.45,290.63Z"/><path d="M228,283.93l5.53,7.5s-6,4.19-7.69,4.94-15.25,1.3-18.81-1.43c-3.18-2.45-4.28-5.66-2.65-7.17,2.08-1.93,7.11-2.54,9.62-2.87C219.47,284.17,228,283.93,228,283.93Z"/><path class="cls-6" d="M224.6,284.21l3.19,11.29s53.58-.8,59.18-9c7.19-7.42,10.1-22-4.39-22.31a31.57,31.57,0,0,0-9.34,1.88C253.59,272.68,224.6,284.21,224.6,284.21Z"/><path class="cls-7" d="M283.81,283.44c-3.34,0-6.14-1.67-8.88-3.33a37.84,37.84,0,0,0-11.1-4.36,100.2,100.2,0,0,1-9.64-2.9c-15.58,5-29.59,11.36-29.59,11.36l2.5,8.85c1.36.33,2.74.68,4.1,1.05a28.55,28.55,0,0,1,4.87.77c.33.09.67.15,1,.21,15.39-.84,46.42-3.23,50.53-9.27a30.78,30.78,0,0,0,2.51-3.73A28,28,0,0,1,283.81,283.44Z"/><path d="M270.74,284.62l-4.65,5.88s7.58,4.62,9.16,5.38,12.53,1.27,16-1.22c3.12-2.24,4.26-5.27,2.75-6.76-1.92-1.9-6.7-2.64-9.09-3C279.67,284,270.74,284.62,270.74,284.62Z"/><path class="cls-6" d="M276.12,283.16l-4.77,13.19s-65.81-5.18-71.17-14.37c-3.2-5.49-3.66-14,3.23-17.08,4.25-1.87,10.24-2.84,18.78.1C243.4,272.3,276.12,283.16,276.12,283.16Z"/><path class="cls-8" d="M250.25,195.63h-9.32s-1.34,12.7-3.77,14.21c0,0-3,15,8.43,15,13.83,0,8.43-15,8.43-15C251.59,208.33,250.25,195.63,250.25,195.63Z"/><path class="cls-9" d="M257.7,198.12c-1.29-1.49-2.84.77-2.84.77s2.13-8.39,0-12.07-9-1.74-9-1.74-6.9-1.94-9,1.74,0,12.07,0,12.07-1.55-2.26-2.84-.77,2.13,5.23,2.9,5.68c0,0,5,9.3,9,9.3s9-9.3,9-9.3C255.57,203.35,259,199.6,257.7,198.12Z"/><path class="cls-3" d="M244.09,188.4s-5.23.92-5.81,3.73a10.8,10.8,0,0,0,.28,4.19,27.38,27.38,0,0,1,.44,4.62.78.78,0,0,1-.68-.11,9.57,9.57,0,0,1-1.76-2.14c-1-1.45-2.42-1.21-2.84-.29,0,0-1.16-13.77,4.6-14.26S244.09,188.4,244.09,188.4Z"/><path class="cls-3" d="M247.49,188.4s5.23.92,5.81,3.73a11.2,11.2,0,0,1-.28,4.19,27.38,27.38,0,0,0-.44,4.62.76.76,0,0,0,.67-.11,9.35,9.35,0,0,0,1.77-2.14c1-1.45,2.42-1.21,2.83-.29,0,0,1.17-13.77-4.6-14.26S247.49,188.4,247.49,188.4Z"/><path class="cls-3" d="M255.18,185a4.23,4.23,0,0,0-2.46-3.68,14,14,0,0,0-11.78,0c-4.07,2-5.3,2.5-6.49,1.82s-.43-1.36-.43-1.36-2.67,0-2.54,4.11,5.21,9.27,11.85,9.27C253.46,195.12,256.74,188,255.18,185Z"/><path class="cls-10" d="M254,209.84c-.49,12.74-8.43,11.43-8.43,11.43s-7.94,1.31-8.43-11.43c0,0-12.68,3.5-18.87,7.65a122.58,122.58,0,0,1,2.8,23.49l7.25,28.09,17.25-3.15,17.24,3.15L270.09,241a122.12,122.12,0,0,1,2.79-23.49C266.7,213.34,254,209.84,254,209.84Z"/><path class="cls-11" d="M268.84,224.85c-7.89,4.21-11.72,13.87-19.38,18.61-7.92,4.9-13.52-5-17.38-10.15a29.93,29.93,0,0,0-12.68-10.09A119.5,119.5,0,0,1,221.09,241l7.25,28.08L245.59,267l17.24,2.11L270.09,241a119.39,119.39,0,0,1,1.64-17.49C270.73,223.92,269.75,224.37,268.84,224.85Z"/><path class="cls-10" d="M218.29,217.49s-14.37,33.76-14.54,38.41c-.34,9,19.36,12.65,28.34,11l3.65-.67S222.41,217.24,218.29,217.49Z"/><path class="cls-10" d="M272.85,217.49s14.52,33.75,14.55,38.41c.06,9.1-19.36,12.65-28.34,11l-3.66-.67S268.73,217.24,272.85,217.49Z"/><path class="cls-11" d="M224.4,229.35a23.33,23.33,0,0,1-.6,4.94c-1.38,6.13-3.57,12.52-1.28,18.74,1.74,4.71,4.52,9.49,7.08,14a11.7,11.7,0,0,0,2.49-.15l3.65-.67S229.63,243.77,224.4,229.35Z"/><path class="cls-11" d="M264.28,266.72a22.23,22.23,0,0,0,1.74-9q-.31-9.39-.15-18.78c0-2.71.11-5.33.27-7.9-5.08,14.42-10.74,35.21-10.74,35.21l3.66.67A14.82,14.82,0,0,0,264.28,266.72Z"/><rect class="cls-3" x="222.99" y="266.61" width="45.2" height="2.68"/><path class="cls-3" d="M274.84,235.27h-58.5s-3.16,0-2.61,3.52,7.91,28.16,9.4,28.16h44.92c1.31,0,8.86-24.63,9.4-28.16S274.84,235.27,274.84,235.27Z"/><path class="cls-4" d="M248,252.33a2.42,2.42,0,1,1-2.42-2.42A2.42,2.42,0,0,1,248,252.33Z"/><path class="cls-3" d="M93,154.47s73.24,92.4,156.61,0C166.19,62.07,93,154.47,93,154.47Z"/><path class="cls-4" d="M103.91,154.47s63,79.46,134.68,0C166.9,75,103.91,154.47,103.91,154.47Z"/><circle class="cls-12" cx="171.25" cy="154.47" r="34.81" transform="translate(-17.88 286.45) rotate(-76.96)"/><path class="cls-3" d="M193.18,154.47a21.93,21.93,0,1,1-21.93-21.92A21.93,21.93,0,0,1,193.18,154.47Z"/><path class="cls-4" d="M197.19,140.66a8.92,8.92,0,1,1-8.91-8.92A8.92,8.92,0,0,1,197.19,140.66Z"/><rect class="cls-13" x="64.33" y="28.9" width="103.68" height="70.13" rx="4.71"/><rect x="69.05" y="34.48" width="94.25" height="58.96"/><polygon class="cls-14" points="103.49 50.32 103.49 79.2 131.6 64.77 103.49 50.32"/></g></g></svg>