<svg xmlns="http://www.w3.org/2000/svg" viewBox="0 0 956.57 902.57"><defs><style>.cls-1{isolation:isolate;}.cls-2{fill:#ccdbde;}.cls-3{opacity:0.7;}.cls-4{fill:#305c66;}.cls-5{opacity:0.74;}.cls-6{fill:#fff;}.cls-7{opacity:0.95;}.cls-8{fill:#e6ebe9;}.cls-9{fill:#fc7d3d;}.cls-10{opacity:0.2;}.cls-11{fill:#103445;}.cls-12{fill:#eb8042;}.cls-13{fill:#ffe3a6;}.cls-14{opacity:0.5;}.cls-15{fill:#000307;}.cls-16{fill:#172f4c;}.cls-17{fill:#bfe3da;}.cls-18{fill:#ff9b61;}.cls-19{fill:#d9622b;}.cls-20{fill:#aacac2;}.cls-21{fill:#5f997f;}.cls-22{mix-blend-mode:multiply;}.cls-23{fill:#dde3ef;}</style></defs><g class="cls-1"><g id="Capa_1" data-name="Capa 1"><path class="cls-2" d="M336.08,673.7q-10.87,21.84-22.34,43.38-13,24.42-26.81,48.44a736.08,736.08,0,0,1,30.94,106.25l87-.2S378.28,775.41,336.08,673.7Z"/><path class="cls-2" d="M276.53,739.29q4.07,9.71,7.85,19.51,25.53-44.53,48.24-90.61a2.84,2.84,0,0,1,.76-1q-3.5-8.31-7.12-16.63Q300,693.89,276.78,738.89A3.34,3.34,0,0,1,276.53,739.29Z"/><path class="cls-2" d="M178.16,774c8.71,15.81,17.52,31.6,24.56,48.25,6.16,14.58,11.55,30.44,11.37,46.47q14.31-19.89,27.72-40.4,20.38-31.14,39-63.38a745.44,745.44,0,0,0-68.88-137.17,737,737,0,0,0-54.6-74.7,2.3,2.3,0,0,1-.28.06q-19.94,2.08-39.73,5.28-15.57,2.53-31,5.79A91.18,91.18,0,0,0,98.1,589.47c35.6,52-13.37,32.7-41.09,46.56a34.18,34.18,0,0,0-5.24,3.3c20.77,8.21,38.22,22.39,54,37.89C134.85,705.7,158.57,738.47,178.16,774Z"/><path class="cls-2" d="M293.33,800.78q-4.69-14.62-10-29.06c-20,34.4-41.47,68-64.73,100.27l93.61-.21A729.14,729.14,0,0,0,293.33,800.78Z"/><path class="cls-2" d="M153.08,548a726.91,726.91,0,0,0-63-65.58c-9.55,23.08-11.34,51.62-5.2,76.42Q118.67,551.81,153.08,548Z"/><path class="cls-2" d="M132.71,441.34c-.9,8,6.13,16.3,14.52,15.06,7.61-1.13,12.57-9.77,10.46-16.94a3.2,3.2,0,0,1-.12-.71,63.41,63.41,0,0,0-24.88,1.8A2.57,2.57,0,0,1,132.71,441.34Z"/><path class="cls-2" d="M194.29,816.9c-7.19-15.57-15.66-30.5-23.92-45.5a390.62,390.62,0,0,0-32.76-50,384.8,384.8,0,0,0-39.55-43.92C83.89,664,68.17,651.66,49.8,644.5a2.83,2.83,0,0,1-1.77-2c-19.5,18.23-36.12,62.38,9,100.36,52,43.82,41.09,49.29,32.87,82.16s4.77,47.27,4.77,47.27L208.41,872C209.55,852.93,202.15,833.92,194.29,816.9Z"/><path class="cls-2" d="M92.54,477.19a727.69,727.69,0,0,1,74.22,78.62A749.83,749.83,0,0,1,268,719.66q2.94,6.5,5.74,13,22.56-43.43,48-85.3a2.59,2.59,0,0,1,2.59-1.3C281,547.85,224.13,452,163.46,439.68c1.84,9.93-5.24,20.73-15.48,22.21-11,1.58-21.38-8.51-20.92-19.4-15.4,6.23-27,18.87-34.62,34.62Z"/><g class="cls-3"><path class="cls-4" d="M259,873.39s-39-59-81.07-111.57q-17.78,21.33-34.34,43.63a1.46,1.46,0,0,1-.16.19q26.43,30.93,49.82,64.28a1.44,1.44,0,0,1-.13,2Z"/><path class="cls-4" d="M141.09,802.92q16.68-22.42,34.58-43.9c-6.29-7.81-12.64-15.45-18.93-22.7-9.85,18.19-18.87,36.86-24.07,57Q136.92,798.07,141.09,802.92Z"/><path class="cls-4" d="M190.19,871.7q-9.74-13.87-20-27.36-3-3.95-6.07-7.85a2.6,2.6,0,0,1-.4,0c-27,0-54.27-.5-80.91,4.64-2.23.43-3.17-3-.94-3.41,26.2-5,52.93-4.82,79.5-4.77a848.24,848.24,0,0,0-62-70.07A7.75,7.75,0,0,1,95.44,769c-20.88,12.18-22.62-31.32-59.15-13.92s71.33,114.84,71.33,114.84l82.66,1.9Z"/><path class="cls-4" d="M117.52,776.68q6.24,6.66,12.32,13.45c5.46-19.94,14.56-38.52,24.43-56.65C126.83,702.19,101,678.91,86.74,682c-32.69,7.1,7.78,52.54,12.3,75.57Q108.43,767,117.52,776.68Z"/></g><path class="cls-2" d="M596.94,680.19q10.88,21.84,22.34,43.39,13,24.4,26.81,48.43a736.08,736.08,0,0,0-30.94,106.25l-87-.2S554.74,781.9,596.94,680.19Z"/><path class="cls-2" d="M656.49,745.78q-4.07,9.71-7.85,19.51-25.53-44.53-48.25-90.61a2.71,2.71,0,0,0-.75-.95q3.5-8.31,7.12-16.63,26.24,43.27,49.48,88.28A3.34,3.34,0,0,0,656.49,745.78Z"/><path class="cls-2" d="M754.86,780.53c-8.71,15.81-17.52,31.6-24.56,48.25-6.16,14.58-11.55,30.44-11.37,46.47q-14.31-19.89-27.72-40.4-20.38-31.14-39-63.38A745.44,745.44,0,0,1,721.09,634.3a737,737,0,0,1,54.6-74.7,2.3,2.3,0,0,0,.28.06q19.93,2.08,39.73,5.28,15.57,2.53,31,5.79A91.18,91.18,0,0,1,834.92,596c-35.6,52,13.37,32.7,41.09,46.56a34.18,34.18,0,0,1,5.24,3.3c-20.77,8.21-38.22,22.39-54,37.89C798.17,712.2,774.45,745,754.86,780.53Z"/><path class="cls-2" d="M639.69,807.27q4.69-14.62,10-29.06c20,34.4,41.47,68,64.73,100.27l-93.61-.21A729.14,729.14,0,0,1,639.69,807.27Z"/><path class="cls-2" d="M779.94,554.53A726.91,726.91,0,0,1,843,489c9.55,23.08,11.34,51.62,5.2,76.42Q814.36,558.3,779.94,554.53Z"/><path class="cls-2" d="M800.31,447.83c.9,7.95-6.13,16.3-14.52,15.06-7.61-1.13-12.57-9.77-10.46-16.94a3.2,3.2,0,0,0,.12-.71,63.41,63.41,0,0,1,24.88,1.8A2.57,2.57,0,0,0,800.31,447.83Z"/><path class="cls-2" d="M738.73,823.39c7.19-15.56,15.66-30.5,23.92-45.5a390.62,390.62,0,0,1,32.76-50A384.8,384.8,0,0,1,835,684c14.17-13.47,29.89-25.82,48.26-33a2.83,2.83,0,0,0,1.77-2c19.5,18.23,36.12,62.38-9,100.36-52,43.82-41.09,49.29-32.87,82.16s-4.77,47.27-4.77,47.27l-113.76-.26C723.47,859.42,730.87,840.41,738.73,823.39Z"/><path class="cls-2" d="M840.48,483.68a727.69,727.69,0,0,0-74.22,78.62A749.83,749.83,0,0,0,665,726.15q-2.94,6.5-5.74,13-22.56-43.43-48-85.3a2.59,2.59,0,0,0-2.59-1.3C652,554.34,708.89,458.52,769.56,446.17c-1.84,9.93,5.24,20.73,15.48,22.21,11,1.58,21.38-8.51,20.92-19.4,15.4,6.23,27,18.87,34.62,34.62Z"/><g class="cls-5"><path class="cls-4" d="M711.46,879.89s39-59,81.07-111.58q17.78,21.33,34.34,43.63c0,.07.11.13.16.19q-26.41,30.93-49.82,64.28a1.45,1.45,0,0,0,.13,2Z"/><path class="cls-4" d="M829.37,809.41q-16.68-22.42-34.59-43.9c6.3-7.81,12.65-15.45,18.93-22.7,9.86,18.19,18.87,36.86,24.08,57Q833.53,804.56,829.37,809.41Z"/><path class="cls-4" d="M780.26,878.19q9.74-13.87,20-27.36,3-3.95,6.07-7.85a2.41,2.41,0,0,0,.4,0c27,0,54.26-.5,80.91,4.64,2.22.43,3.17-3,.94-3.41-26.2-5-52.94-4.82-79.51-4.76a845,845,0,0,1,62-70.08,7.73,7.73,0,0,0,3.9,6.09c20.88,12.18,22.62-31.32,59.16-13.92s-71.34,114.84-71.34,114.84l-82.66,1.9Z"/><path class="cls-4" d="M871.41,764.07c4.52-23,45-68.47,12.3-75.57-14.22-3.09-40.09,20.18-67.52,51.47,9.86,18.13,19,36.71,24.42,56.65q6.09-6.78,12.32-13.45Q862,773.48,871.41,764.07Z"/></g><rect class="cls-4" x="243.29" y="20.18" width="479.85" height="858.93" rx="27.56"/><path class="cls-6" d="M408.7,83.57a9.4,9.4,0,1,1,9.56-9.4A9.49,9.49,0,0,1,408.7,83.57Zm0-18.5a9.1,9.1,0,1,0,9.27,9.1A9.2,9.2,0,0,0,408.7,65.07Z"/><path class="cls-6" d="M553.15,80.68H434.79a5.87,5.87,0,1,1,0-11.74H553.15a5.87,5.87,0,1,1,0,11.74ZM434.79,69.23a5.58,5.58,0,0,0,0,11.16H553.15a5.58,5.58,0,1,0,0-11.16Z"/><path class="cls-6" d="M515,853.86a26.67,26.67,0,1,1,26.66-26.67A26.7,26.7,0,0,1,515,853.86Zm0-53a26.28,26.28,0,1,0,26.28,26.28A26.32,26.32,0,0,0,515,800.91Z"/><g class="cls-7"><path class="cls-6" d="M633.5,52.7H622.3a61.78,61.78,0,0,1-61.77,61.05H397.13a61.78,61.78,0,0,1-61.77-61h-2.43a57.18,57.18,0,0,0-57.11,57.12V789.46a57.18,57.18,0,0,0,57.11,57.11H633.5a57.18,57.18,0,0,0,57.11-57.11V109.82A57.18,57.18,0,0,0,633.5,52.7Z"/></g><circle class="cls-8" cx="483.88" cy="287.68" r="95.19" transform="translate(-55.97 128.11) rotate(-14.27)"/><path class="cls-9" d="M483.88,335.23a41.63,41.63,0,0,1-41.59-41.59V257.93a.92.92,0,1,1,1.83,0v35.71a39.76,39.76,0,0,0,79.52,0V257.93a.92.92,0,1,1,1.83,0v35.71A41.64,41.64,0,0,1,483.88,335.23Z"/><rect class="cls-9" x="452.15" y="226.2" width="63.46" height="99.16" rx="9.75"/><path class="cls-6" d="M493.55,247.42H474.21a.39.39,0,0,1-.39-.39.38.38,0,0,1,.39-.39h19.34a.38.38,0,0,1,.38.39A.39.39,0,0,1,493.55,247.42Z"/><path class="cls-6" d="M493.55,257.33H474.21a.38.38,0,0,1-.39-.39.39.39,0,0,1,.39-.39h19.34a.39.39,0,0,1,.38.39A.38.38,0,0,1,493.55,257.33Z"/><path class="cls-6" d="M493.55,267.25H474.21a.39.39,0,0,1-.39-.39.38.38,0,0,1,.39-.39h19.34a.38.38,0,0,1,.38.39A.39.39,0,0,1,493.55,267.25Z"/><path class="cls-9" d="M483.8,349.9h0a.92.92,0,0,1-.89-.94l.33-14a.92.92,0,1,1,1.83,0l-.33,14A.92.92,0,0,1,483.8,349.9Z"/><path class="cls-9" d="M503.63,350.08h0l-37.68-.18a.92.92,0,0,1,0-1.83l37.68.18a.9.9,0,0,1,.91.92A.91.91,0,0,1,503.63,350.08Z"/><g class="cls-10"><path class="cls-9" d="M626.67,425H343.25a1,1,0,0,1,0-2H626.67a1,1,0,1,1,0,2Z"/></g><path class="cls-9" d="M444.94,425H343.25a1,1,0,0,1,0-2H444.94a1,1,0,1,1,0,2Z"/><rect class="cls-8" x="341.76" y="466.22" width="286.4" height="133.78" rx="19.61"/><rect class="cls-11" x="400.37" y="522.04" width="166.19" height="0.76"/><rect class="cls-11" x="381.86" y="508.43" width="203.22" height="0.76"/><rect class="cls-11" x="415.28" y="493.86" width="136.38" height="0.76"/><rect class="cls-11" x="400.37" y="558.96" width="166.19" height="0.76"/><rect class="cls-11" x="415.28" y="571.59" width="136.38" height="0.76"/><rect class="cls-11" x="415.28" y="533.7" width="136.38" height="0.76"/><rect class="cls-11" x="381.86" y="546.33" width="203.22" height="0.76"/><path class="cls-12" d="M458.61,663.06s-14.43,143.35-45.77,118.81c-19.91-15.59-48.62-46-50-50.25,1-6.63,1.72-11.22,1.63-12.3,0,0-6.1-39.56-15.12-55.15-1-1.71-8.48-27.79-8-27.84,35.09-3.46,43.21,29.79,46.73,70.53.14,1.68,43.59-62,43.59-62-.36-3.59-3.64-29.3,1.54-25.44s3.49,9.37,5,10.93,10.42-37.33,14.53-35.48c5.81,2.63-4.77,26.3-.55,24.71s9.24-24.09,12.61-22.48c5.38,2.56-7.24,25-4.64,25.42s7.89-21,11.74-19.51c5.43,2.13-7.56,27.21-4.27,25.93s8.12-16.06,10.53-14.38S458.61,663.06,458.61,663.06Z"/><path class="cls-13" d="M355.69,634.07s26-6,35.7,31.91l-14.06,9.19Z"/><path class="cls-13" d="M770,886.11l14.91-72.29s-30.06-2.89-34.93,31.72l10.82,9.2-3.24,30.83Z"/><path class="cls-4" d="M440.19,660.68l28.23,8A8.63,8.63,0,0,0,479,662.23l14.27-55.75a9.15,9.15,0,0,0-6.12-11.16l-28.22-8a8.65,8.65,0,0,0-10.63,6.43l-14.27,55.75A9.17,9.17,0,0,0,440.19,660.68Z"/><g class="cls-14"><path class="cls-6" d="M457.93,591.4l4.05,1.15-.35,1.33a4.24,4.24,0,0,0,2.83,5.15l12.19,3.44a4,4,0,0,0,4.9-3l.34-1.33,4.26,1.21a4.94,4.94,0,0,1,3.3,6l-14.27,55.75a4.66,4.66,0,0,1-5.72,3.46l-28.23-8a4.94,4.94,0,0,1-3.3-6l14.28-55.76A4.65,4.65,0,0,1,457.93,591.4Z"/></g><path class="cls-15" d="M476,658.42l-.9,3.5a4.46,4.46,0,0,1-5.48,3.32l-28.91-8.17a4.74,4.74,0,0,1-3.16-5.76l.9-3.5Z"/><path class="cls-15" d="M470.83,665.45a4.39,4.39,0,0,1-1.19-.17l-28.9-8.16a4.79,4.79,0,0,1-3.19-5.83l.9-3.54h.05l37.6,10.63-.91,3.54a4.67,4.67,0,0,1-2.19,2.93A4.34,4.34,0,0,1,470.83,665.45Zm-32.31-17.58-.88,3.45a4.69,4.69,0,0,0,3.13,5.7l28.9,8.17a4.28,4.28,0,0,0,3.28-.41,4.61,4.61,0,0,0,2.15-2.88l.88-3.45Z"/><path class="cls-6" d="M460.06,659.63c-.05.2-.23.25-.42.2s-.33-.2-.28-.4"/><path class="cls-6" d="M460.77,659.48a2.4,2.4,0,0,0,0,.3l-2-.58a1.47,1.47,0,0,0,.14-.26Z"/><path class="cls-6" d="M460.78,659.33l-1.87-.53a6.24,6.24,0,0,0,.22-.63,1,1,0,0,1,.9-.72c.05-.15.17-.25.27-.22s.16.17.13.32a1,1,0,0,1,.48,1.12A3.82,3.82,0,0,0,460.78,659.33Z"/><path class="cls-6" d="M452.87,656.21a.69.69,0,0,0,.13-.74h0c-.16-.31-.66-.19-.88,0-.1-.26-.47-.63-.76-.45h0c-.23.12-.27.41-.25.7a2.15,2.15,0,0,0,.63,1.25A2,2,0,0,0,452.87,656.21Z"/><path class="cls-6" d="M442.77,654.7a.22.22,0,0,0,.1.11.24.24,0,0,0,.12,0l.64-.23a1.25,1.25,0,0,0,.61.59,1.17,1.17,0,0,0,1.52-.7,1.26,1.26,0,0,0-.67-1.59,1.16,1.16,0,0,0-1.51.7,1.37,1.37,0,0,0-.06.66l-.64.23A.18.18,0,0,0,442.77,654.7Zm1-.35h0a1,1,0,0,1,0-.68.94.94,0,0,1,1.24-.57,1,1,0,0,1,.54,1.3.94.94,0,0,1-1.24.57A1,1,0,0,1,443.76,654.35Z"/><polyline class="cls-6" points="466.55 660.21 466.19 661.59 468.19 662.15 468.55 660.77"/><polyline class="cls-6" points="468.86 661.26 467.83 659.38 466.04 660.47"/><path class="cls-6" d="M466.88,661.88l.56.16.17-.68a.3.3,0,0,0-.2-.37h0a.29.29,0,0,0-.36.22Z"/><polygon class="cls-16" points="455.25 603.26 453.71 600.46 456.93 598.51 457.03 598.69 454 600.53 455.43 603.16 455.25 603.26"/><path class="cls-6" d="M478.65,599.28h0l-10.51-3a.1.1,0,0,1-.07-.13.09.09,0,0,1,.13-.07l10.51,3a.09.09,0,0,1,.07.12A.11.11,0,0,1,478.65,599.28Z"/><path class="cls-6" d="M465.76,595.37a.52.52,0,0,1,.64-.39.56.56,0,0,1,.38.68.53.53,0,0,1-.65.39A.55.55,0,0,1,465.76,595.37Z"/><circle class="cls-17" cx="355.62" cy="571.87" r="28.13"/><path d="M355.62,591.76a19.9,19.9,0,1,1,19.89-19.89A19.91,19.91,0,0,1,355.62,591.76Zm0-38.79a18.9,18.9,0,1,0,18.89,18.9A18.92,18.92,0,0,0,355.62,553Z"/><polygon class="cls-18" points="404.75 767.85 405.37 778.66 321.88 804.64 320.49 791.75 404.75 767.85"/><path d="M351.55,663.27l13.73-102.55c2.3-6.43-4.6-32-9.67-36.55-13.86-12.62-33.17-18.28-51.91-18.53-21.59-.29-39.41,13.49-42.36,34.37-.3,2.11-.66-1.14-.3,20.14s-17,10.45-17.67,29.93,14.43,16.58,10.1,30.64-26,10.82-26.32,28.49,9.37,6.13,6.85,29.21-23.08,15.5-21.64,32.09c0,0,43.27,89.06,125.48,5.77"/><path class="cls-18" d="M298.51,561.56a1.59,1.59,0,0,1-1.91,1.26c-3.68-.83-12-3.5-15.34,5.87s4.69,17,10.2,18.55c1.6.45,5.24,1.6,6.07,3,2.55,4.4,2.36,12.74,2.73,23.26.84,23.25-6.65,43.93-6.65,43.93s64.09,29.43,58.3.94c-6.49-31.91-8.26-55.47-7.93-55.68,5.49-3.5,25.41-2.12,22.69-41.76-2.52-36.73-28.35-39.88-35-40.17C326,520.55,306.9,517.55,298.51,561.56Z"/><path class="cls-19" d="M284.82,572.41s8.5-10.93,12.22,7.07"/><path class="cls-9" d="M330.5,568.71a8.86,8.86,0,1,1-10.41,7A8.86,8.86,0,0,1,330.5,568.71Z"/><path class="cls-9" d="M365.83,579.93a8.87,8.87,0,0,1,.64-16.58S368,573.74,365.83,579.93Z"/><path class="cls-6" d="M359.84,574.75l-15,2s4.67,6.7,8.9,5.38S359.84,574.75,359.84,574.75Z"/><path class="cls-19" d="M352.05,567.44l-1.05,6.8,3.57-.17a.86.86,0,0,0,.7-1.31Z"/><path d="M336.62,556.82c-1.5,1.34.4-4.09,2.56-5a4,4,0,0,1,5.28,1.81A12.42,12.42,0,0,0,336.62,556.82Z"/><path d="M362.17,553.21c1.77.95-1.36-3.88-3.67-4.2a4,4,0,0,0-4.69,3A12.37,12.37,0,0,1,362.17,553.21Z"/><path class="cls-19" d="M345.82,602.15s-10.51,1.11-18.69-1.27C332,612.9,341.76,611.83,345.82,602.15Z"/><path class="cls-13" d="M344.88,624.33a115,115,0,0,1,10.81,9.74c16.26,17.09,38.73,45.75,43.42,64,5.75,22.39,20.25,80.5,20.25,80.5s-84.3,23.58-106.17,29.92c-20.35-34.48-44-97.37-42.79-127.72,0,0-1.58-3.64,7.41-18.59,1.93-3.21,19.58-31.61,20.55-33.53C298.36,628.66,369.21,714.65,344.88,624.33Z"/><path class="cls-18" d="M401.13,716.82,313,806.1a23.71,23.71,0,0,1-37.39-14.92c-6.51-36.42-17.51-71.37-14.08-98.15C262.3,676,276,660.08,285.2,659.55c30.06-1.73,25.15,70.34,28.15,88,0,0,51.11-42.91,69.65-60.69,0,0,12.28-28,15.32-25.4s-2.34,11.45-.61,13.22,14.72-19.09,16.78-17.57c3.2,2.37-9,16.81-7.3,18.14s12.06-18.72,15.1-14.73c2.83,3.73-10.76,19.15-9.46,20.47s13.7-15.2,16.31-12.55S417.8,684.41,417.31,685c0,2.19,9.52-12.36,10.37-9.29S401.13,716.82,401.13,716.82Z"/><path class="cls-13" d="M253.47,731.42l68.15-13s-3.25-64.36-34.62-63.28S253.47,731.42,253.47,731.42Z"/><path d="M347.9,568.34c.12,2-.43,3.73-1.22,3.78s-1.55-1.57-1.67-3.61.43-3.73,1.22-3.78S347.78,566.3,347.9,568.34Z"/><path d="M358.62,566.35c.13,2-.42,3.74-1.22,3.78s-1.54-1.56-1.67-3.6.43-3.73,1.23-3.78S358.5,564.31,358.62,566.35Z"/><path d="M318.37,527.52s6.85,13.88,20.2,10.09,10.63-15.68,10.63-15.68.9,14.24,9,16.4,4.5-19.65-13-21.09c0,0,5.95-11.18-10.1-11.18A27.28,27.28,0,0,0,312.06,518s-26.1,15.59-15.87,43.76c.13.37.27.74.41,1.1C296.6,562.82,327.57,555.64,318.37,527.52Z"/><circle class="cls-17" cx="287" cy="571.87" r="28.13"/><path d="M287,591.76a19.9,19.9,0,1,1,19.9-19.89A19.91,19.91,0,0,1,287,591.76ZM287,553a18.9,18.9,0,1,0,18.9,18.9A18.91,18.91,0,0,0,287,553Z"/><path class="cls-17" d="M289.21,548.62c0-.26-.48-26.15,11.94-38.87a23.21,23.21,0,0,1,17.22-7.07c29.51,0,45.31,6.76,49.72,43.71l-1,.11c-4.33-36.2-19.8-42.82-48.73-42.82a22.19,22.19,0,0,0-16.5,6.77c-12.13,12.42-11.67,37.89-11.66,38.15Z"/><path class="cls-17" d="M364.56,732.51c-7.11,0-13.55-4.09-18.45-7.75-17.7-13.19-32.26-32.25-42.11-55.11-7.73-17.94-12.8-42.28-15.08-72.34l.5,0c2.27,30,7.33,54.29,15,72.18,9.81,22.79,24.32,41.77,42,54.91,5.14,3.84,12,8.16,19.49,7.6,4.55-.35,8.74-2.55,11.48-4.17,14.45-8.53,25.64-22.13,36.46-35.27,9-10.89,18.23-22.14,29.32-30.53l.3.4c-11,8.35-20.29,19.58-29.23,30.45-10.85,13.17-22.07,26.8-36.59,35.38-2.79,1.65-7,3.88-11.7,4.23Q365.25,732.51,364.56,732.51Z"/><polygon class="cls-18" points="721.32 884.28 770.67 884.48 784.91 813.82 751.61 845.67 726.2 846.9 721.32 884.28"/><path class="cls-6" d="M770,886.11l14.91-72.29s-30.06-2.89-34.93,31.72l10.82,9.2-3.24,30.83Z"/><polygon class="cls-20" points="728.2 836.49 724.56 885.03 353.73 884.75 399.18 770.37 728.2 836.49"/><polygon class="cls-21" points="400.09 771.51 580.82 884.08 353.73 884.75 400.09 771.51"/><rect class="cls-6" x="674.06" y="858.2" width="53.8" height="0.3" transform="translate(-240.1 1443.6) rotate(-82.64)"/><rect class="cls-6" x="540.81" y="679.16" width="0.3" height="321.09" transform="translate(-353.25 1284.83) rotate(-83.67)"/><polygon class="cls-18" points="517.16 836.49 525.84 885.07 597.91 886.36 560.59 859.33 554.8 834.56 517.16 836.49"/><path class="cls-6" d="M521.74,886.65v-11.9l30.83,1.08,11.36-14.06s27.39-12.49,34,24.59Z"/><path class="cls-17" d="M313,806.1c4.67,3.37-10.45,82.51,45.53,78.65,81.07,1.93,123.53-138.18,123.53-138.18L513,844.37l55,1.45L535.17,680.14c-6.89-34.19-47.6-48.87-74.72-26.94Z"/><path class="cls-6" d="M361.1,832a7.78,7.78,0,0,1-1.61-.16,22,22,0,0,1-15.85-8.58c-3.22-4.07-5.61-9.56-7.11-16.3A86.22,86.22,0,0,1,334.92,784l.3,0a85.84,85.84,0,0,0,1.6,22.81c2.34,10.51,8.18,23.33,22.71,24.65a8.22,8.22,0,0,0,1.58.15c15.05,0,40.36-39.18,64.87-77.11s47.74-73.89,60.95-72.32c7.39.3,14.44,7.68,20.93,22,5.18,11.37,10,27.14,14.43,46.85,7.47,33.57,11.06,67.4,11.1,67.74l-.3,0A685.22,685.22,0,0,0,522,751.11c-4.39-19.7-9.24-35.44-14.41-46.8-6.45-14.16-13.4-21.48-20.68-21.77-5.84-.69-14.4,6.33-26.16,21.49-10.54,13.59-22.73,32.45-34.52,50.69C401.68,792.72,376.32,832,361.1,832Z"/><rect class="cls-6" x="504.93" y="818.65" width="58.55" height="0.3"/><g class="cls-22"><path class="cls-23" d="M697.59,341.09H834a50.37,50.37,0,0,0,50.36-50.37v-3.28A50.37,50.37,0,0,0,834,237.07H697.59a50.37,50.37,0,0,0-50.37,50.37v77.45Z"/></g><rect class="cls-11" x="713.83" y="263.93" width="0.76" height="56.53"/><rect class="cls-11" x="689.15" y="263.93" width="0.76" height="56.53"/><rect class="cls-11" x="725.29" y="271.57" width="0.76" height="36.67"/><rect class="cls-11" x="676.81" y="271.57" width="0.76" height="36.67"/><rect class="cls-11" x="736.75" y="263.93" width="0.76" height="49.66"/><rect class="cls-11" x="702.38" y="261.63" width="0.76" height="63.41"/><rect class="cls-11" x="839.89" y="263.93" width="0.76" height="56.53"/><rect class="cls-11" x="851.35" y="271.57" width="0.76" height="36.67"/><rect class="cls-11" x="828.43" y="261.63" width="0.76" height="63.41"/><rect class="cls-11" x="795.81" y="263.93" width="0.76" height="56.53"/><rect class="cls-11" x="771.13" y="263.93" width="0.76" height="56.53"/><rect class="cls-11" x="807.27" y="271.57" width="0.76" height="36.67"/><rect class="cls-11" x="758.79" y="271.57" width="0.76" height="36.67"/><rect class="cls-11" x="818.73" y="263.93" width="0.76" height="49.66"/><rect class="cls-11" x="784.35" y="261.63" width="0.76" height="63.41"/><rect class="cls-11" x="748.21" y="249.41" width="0.76" height="80.22"/><circle class="cls-15" cx="645.75" cy="380.15" r="5.45"/><g class="cls-22"><path class="cls-23" d="M328.69,220.37,298.36,190H184.14A42.09,42.09,0,0,1,142.05,148v-9.13a42.1,42.1,0,0,1,42.09-42.1H286.6a42.09,42.09,0,0,1,42.09,42.1Z"/></g><path class="cls-4" d="M202.71,142.22a10.5,10.5,0,1,1-10.5-10.5A10.51,10.51,0,0,1,202.71,142.22Z"/><path class="cls-4" d="M241.2,142.22a10.5,10.5,0,1,1-10.5-10.5A10.51,10.51,0,0,1,241.2,142.22Z"/><circle class="cls-4" cx="269.2" cy="142.22" r="10.5"/><circle class="cls-15" cx="330.27" cy="242.52" r="5.45"/><path class="cls-15" d="M756.47,404.16A13.48,13.48,0,1,1,770,390.68,13.5,13.5,0,0,1,756.47,404.16Zm0-26A12.48,12.48,0,1,0,769,390.68,12.49,12.49,0,0,0,756.47,378.2Z"/><path class="cls-15" d="M177.75,415a15.64,15.64,0,1,1,15.64-15.64A15.66,15.66,0,0,1,177.75,415Zm0-30.28a14.64,14.64,0,1,0,14.64,14.64A14.66,14.66,0,0,0,177.75,384.69Z"/><path class="cls-15" d="M226.43,77.47a9.15,9.15,0,1,1,9.15-9.15A9.16,9.16,0,0,1,226.43,77.47Zm0-17.3a8.15,8.15,0,1,0,8.15,8.15A8.16,8.16,0,0,0,226.43,60.17Z"/><path class="cls-15" d="M66.33,607.52a9.16,9.16,0,1,1,9.15-9.15A9.15,9.15,0,0,1,66.33,607.52Zm0-17.31a8.16,8.16,0,1,0,8.15,8.16A8.16,8.16,0,0,0,66.33,590.21Z"/><path class="cls-15" d="M793.25,436.61a9.16,9.16,0,1,1,9.16-9.15A9.17,9.17,0,0,1,793.25,436.61Zm0-17.31a8.16,8.16,0,1,0,8.16,8.16A8.17,8.17,0,0,0,793.25,419.3Z"/></g></g></svg>