<svg id="Capa_1" data-name="Capa 1" xmlns="http://www.w3.org/2000/svg" viewBox="0 0 378 350"><defs><style>.cls-1,.cls-2{fill:#81d0d6;}.cls-1{opacity:0.2;}.cls-3{fill:#fff;}.cls-4{fill:#e5e6ed;}.cls-5{fill:#d0d1de;}.cls-6{fill:#305c66;}.cls-7{fill:#fd425f;}.cls-8{fill:#e8a097;}.cls-9{fill:#fc7d3d;}.cls-10{fill:#b74311;}.cls-11{fill:#fcb9ac;}</style></defs><circle class="cls-1" cx="194.14" cy="180.83" r="162.43"/><path class="cls-2" d="M152,230.81c-13.27-15-52.44-35.32-42.15-58.66,8.76-19.86,50.78-17.41,45.72-41.35-3-14.15-6.87-26.24,2.27-42.34,9.95-17.53,39.71-8,50-24.27,8.86-14-2.66-35.6,15.65-44.95,16.25-8.29,35.89,7.91,38.82,22.28,3.67,17.95-14.12,26.4-16.4,42-1.45,10,7.61,13.41,12.8,20.38,5,6.67,9.44,16.27,9.77,24.53,1,24.83-26.22,28-39.12,43.83-11.95,14.62,10.08,24.05,6.78,39.94-3.56,17.16-28,26.53-45.18,26.28C179,238.33,160.18,240.09,152,230.81Z"/><path class="cls-3" d="M169.28,239a1.24,1.24,0,0,1-.31-.1.9.9,0,0,1-.41-1.35c.23-.36,24.53-36.89,25.93-82.81.93-30.6,13.65-50.19,24.09-66.26,6.3-9.7,11.79-18.16,12.64-26.65a1.37,1.37,0,0,1,1.42-1.2,1.19,1.19,0,0,1,1.17,1.31c-.92,9.09-6.58,17.78-13.07,27.75-10.28,15.79-22.82,35.05-23.78,65-1.49,46.47-26.14,83.42-26.39,83.78A1.3,1.3,0,0,1,169.28,239Z"/><path class="cls-3" d="M196.57,154.85a1.07,1.07,0,0,1-.91-1.16,1.25,1.25,0,0,1,1.36-1c10.29.61,24-5.4,28.2-15.43.5-1.21,1-2.55,1.52-3.95,2.51-6.73,5.67-15.19,12.29-18.23,3.23-1.48,7-1.49,11.08-.08a1.08,1.08,0,0,1,.63,1.5,1.37,1.37,0,0,1-1.65.7c-3.52-1.21-6.47-1.23-9.07,0-5.6,2.58-8.57,10.48-10.93,16.77-.54,1.43-1.05,2.79-1.56,4-4.73,11.38-19.63,17.62-30.78,17A1.13,1.13,0,0,1,196.57,154.85Z"/><path class="cls-3" d="M189.27,153.7c-4.78-1.08-8.41-3.17-10.81-6.27-3.82-4.9-4.42-12.3-1.69-21.44.27-.91.62-2,1-3.1,2.14-6.53,5.42-16.5,2.19-22a7.9,7.9,0,0,0-5.21-3.65,1.17,1.17,0,0,1-.88-1.48,1.33,1.33,0,0,1,1.58-.86h0a10.35,10.35,0,0,1,6.75,4.78c3.72,6.41.24,17-2,23.85-.37,1.13-.71,2.15-1,3-2.54,8.45-2.08,15.19,1.3,19.54,2.88,3.72,7.94,5.78,15,6.16a1.09,1.09,0,0,1,1.11,1.18,1.27,1.27,0,0,1-1.35,1.06A36.54,36.54,0,0,1,189.27,153.7Z"/><path class="cls-3" d="M183.41,224.52a11.68,11.68,0,0,1-4-1.44.92.92,0,0,1-.25-1.42,1.31,1.31,0,0,1,1.66-.27c6.16,3.71,18.69-1.11,24-4.87,2.22-1.57,4.22-4.29,6.33-7.19,3.79-5.17,7.73-10.56,14-10.73a1,1,0,0,1,1.15,1,1.21,1.21,0,0,1-1.22,1.08c-4.91.14-8.48,5-11.91,9.68-2.24,3-4.34,5.92-6.89,7.71C201.52,221.45,191.08,225.92,183.41,224.52Z"/><path class="cls-3" d="M173.33,222.27a14.72,14.72,0,0,1-4.27-1.5c-7.76-4.13-12.36-14.69-13.56-20.85-.64-3.3.35-7.67,1.4-12.32,1.69-7.42,3.44-15.17-1.39-18.71a1,1,0,0,1-.15-1.55,1.35,1.35,0,0,1,1.74-.16c5.94,4.35,3.94,13.14,2.19,20.8-1,4.45-2,8.62-1.4,11.54,1.07,5.57,5.41,15.73,12.47,19.49a11.62,11.62,0,0,0,8.64,1,1.2,1.2,0,0,1,1.45.69,1.06,1.06,0,0,1-.85,1.27A14.54,14.54,0,0,1,173.33,222.27Z"/><path class="cls-4" d="M247,281.22c-22.76-5.62-40.79-10.7-41.28-34.81-.25-12.48,5.31-21.09,18.48-28,10.64-5.6,16.1-7.52,18.55-18.57,3.92-17.67-4.61-35.09,6.52-52.19,12.42-19.07,40.44-10.37,53.38-27.66,11.61-15.51,18-35.62,42.5-35.33,20.64.24,29.06,21.8,20.22,36.75-5,8.42-13.68,14.35-17.21,23.37-3.37,8.6.33,15.62,3.64,23.48,7.32,17.35,9.1,35.24-10.81,46.7-11.9,6.85-21.08,12.87-16.79,25.72,4.51,13.51,6.53,21.21-9.87,31.38-12.26,7.6-23.44,7-37.52,7.57-13.19.55-30.82,4.16-43.28-1.55Z"/><path class="cls-3" d="M254.4,268.71a17.08,17.08,0,0,1-3.85-6.79c-2.75-10.11,6.87-20.24,15.59-29.43,4.39-4.62,8.58-9,10.55-12.81,5.38-10.27,7-19.43,5.84-33.79-1.36-17,3.21-24,17.11-35.26,11.72-9.51,23.3-20,26.57-30.34a1.84,1.84,0,0,1,2.3-1,1.65,1.65,0,0,1,1.38,1.94c-3.49,11-15.48,21.83-27.58,31.58C288.85,163.66,284.69,170,286,186.15c1,12.24.26,22.84-6.14,35-2.11,4-6.43,8.54-10.94,13.26-8.42,8.81-17.72,18.55-15.27,27.6,1,3.5,3.57,6.7,8,9.79.73.53,1,1.33.51,1.82a1.76,1.76,0,0,1-2.18-.06A31.43,31.43,0,0,1,254.4,268.71Z"/><path class="cls-3" d="M283.2,202a1.51,1.51,0,0,1-.4-.88c0-.76.7-1.29,1.64-1.19,8.24.9,14.32-5.53,20.87-12.45,5.81-6.12,11.9-12.56,20.25-14.32a2.22,2.22,0,0,1,2.39,1.06,1.24,1.24,0,0,1-1,1.78c-7.32,1.53-13.13,7.62-18.66,13.42-6.79,7.13-13.68,14.37-23.68,13.26A2.27,2.27,0,0,1,283.2,202Z"/><path class="cls-3" d="M276.63,223a1.66,1.66,0,0,1-.3-.49,28.38,28.38,0,0,1-1.47-5.46,15.8,15.8,0,0,0-3.37-8.06,47.69,47.69,0,0,0-4.07-4.29c-2.88-2.82-5.86-5.7-7.2-10.33-1.92-6.61-1.79-14.83.38-24.52a48.13,48.13,0,0,1,1.76-5.26c1.06-2.9,3.08-8.33,2.41-9.54a1.23,1.23,0,0,1,.68-1.83,2,2,0,0,1,2.23.73c1.38,2.06.12,5.86-2.11,11.81a50.39,50.39,0,0,0-1.68,5c-1.46,6.44-2.72,15.67-.47,23.45,1.12,3.89,3.54,6.24,6.37,9a53.27,53.27,0,0,1,4.38,4.64,18.49,18.49,0,0,1,4,9.35,25.91,25.91,0,0,0,1.33,5,1.09,1.09,0,0,1-1.05,1.51A2.24,2.24,0,0,1,276.63,223Z"/><path class="cls-5" d="M110.19,278c-25.2-4.57-48.79-2.63-59-30.22C43.13,225.93,62,205.37,43,190.36c-11.39-9-29.37-14.44-33.35-29.87-4.14-16.08,16.43-26.26,12.73-41.69C19.34,106.05,1.65,105.21,6.26,88.61c4.1-14.73,17-18.44,27.35-15.5,13.77,3.93,14.91,16.53,24,25.27,6.1,5.84,14.73,0,23.68-1.1s20.33-.28,27.87,3.65c24.52,12.77,4.87,39.82,9.33,61.83,4.3,21.29,34.27,8.42,49.75,24.41,18.08,18.67,4.44,51-13.38,66.2C143,263.52,127.22,281.08,110.19,278Z"/><path class="cls-3" d="M134.51,272.42a1.4,1.4,0,0,1-.4.16,1.6,1.6,0,0,1-1.89-1.07c-.17-.57-16.56-55.37-56.48-91.47-22.48-20.31-27.82-41.29-32-57.69-2.43-9.56-4.51-17.71-9.29-22.12a1.21,1.21,0,0,1,.09-1.61c.46-.55,1.12-.68,1.5-.33,5.16,4.72,7.31,13.12,9.84,23C50,137.45,55.34,158.16,77.51,178c40.73,36.53,57.48,92.2,57.65,92.78A1.37,1.37,0,0,1,134.51,272.42Z"/><path class="cls-3" d="M77.35,178.46a1.2,1.2,0,0,1-1.61-.06,1.32,1.32,0,0,1,.15-1.8c8.08-8,13.33-23.31,8.07-33-.62-1.14-1.35-2.35-2.1-3.62-3.58-6-8-13.32-5.68-20.45,1.12-3.49,3.76-6.65,7.8-9.41a1.11,1.11,0,0,1,1.67.23,1.49,1.49,0,0,1-.63,1.78c-3.49,2.36-5.61,4.85-6.51,7.67-1.94,6.09,2.19,13,5.57,18.58.78,1.29,1.52,2.53,2.16,3.69,6,11,.09,27.58-8.74,36.24Z"/><path class="cls-3" d="M71.13,183.5c-4.24,3-8.39,4.41-12.38,4.16-6.18-.39-11.81-4.79-16.31-12.63-.44-.76-.92-1.67-1.45-2.65-3-5.54-7.41-13.76-12.82-14.51a6.87,6.87,0,0,0-5.29,1.74.9.9,0,0,1-1.4-.19,1.36,1.36,0,0,1,.41-1.61h0a9,9,0,0,1,6.88-2.24c6.28.85,11,9.54,14.16,15.39.53,1,1,1.86,1.44,2.61,4.19,7.25,9.3,11.3,14.79,11.62,4.79.28,9.94-2.28,15.29-7.62a1.22,1.22,0,0,1,1.76-.1,1.32,1.32,0,0,1-.13,1.81A41,41,0,0,1,71.13,183.5Z"/><path class="cls-3" d="M131.8,246a14.62,14.62,0,0,1-5.16,2,1.48,1.48,0,0,1-1.72-1.15,1.42,1.42,0,0,1,1.21-1.65c9.64-1.68,16-17.15,16.83-25.31.33-3.39-.83-7.59-2.06-12-2.17-7.8-4.38-15.78,1.12-21.57a1.6,1.6,0,0,1,2.17-.25,1.33,1.33,0,0,1,.06,2c-4.38,4.58-2.34,11.85-.36,18.94,1.31,4.68,2.56,9.12,2.17,13C145.34,227.3,140.48,240.71,131.8,246Z"/><path class="cls-3" d="M120.3,252.23a17.17,17.17,0,0,1-5.29,2.06c-10.73,2.33-24.38-3.81-30.79-8.35-3.36-2.39-6.32-6.89-9.42-11.59C70,227,65.1,219.58,59,220.52a1.13,1.13,0,0,1-1.29-1.07,1.37,1.37,0,0,1,1.1-1.43c7.58-1.18,13.14,7.22,18.16,14.8,3,4.51,5.83,8.81,8.81,10.91,5.83,4.1,18.88,10,28.64,7.82a12.76,12.76,0,0,0,8.68-6.17,1.54,1.54,0,0,1,2-.56,1.4,1.4,0,0,1,.58,1.93A15.34,15.34,0,0,1,120.3,252.23Z"/><rect class="cls-6" x="70.84" y="138.99" width="235.35" height="157.81" rx="5.46"/><rect class="cls-3" x="81.68" y="149.45" width="202.9" height="135.26"/><path class="cls-3" d="M298.87,217.89a4.26,4.26,0,1,1-4.25-4.25A4.25,4.25,0,0,1,298.87,217.89Z"/><rect class="cls-4" x="121.7" y="176.32" width="122.91" height="83.14" rx="5.59"/><rect x="127.29" y="182.95" width="111.73" height="69.9"/><polygon class="cls-7" points="162.41 195.86 162.41 241.83 207.16 218.84 162.41 195.86"/><path class="cls-6" d="M184.93,138.12s-28.4-.16-38.37-6.81-11.72-33.08,2.77-43.89,17.48-14.12,18.12-21.25.48-23.28,19.24-23.35c18.4-.07,16.81,15,18.21,24.59,1,6.68,10.16,16.54,18.2,22.69C233.43,98,245,144.76,184.93,138.12Z"/><path class="cls-8" d="M181.65,61.42l6.17.2,6.18.19s1.25,16.88,4.41,19c0,0,3.35,20-11.8,19.52-18.33-.57-10.55-20.22-10.55-20.22C179.34,78.19,181.65,61.42,181.65,61.42Z"/><path class="cls-9" d="M161,138.88h49.82L215,122.73c.65-16.36.88-33.07.88-33.07-7.13-5.75-18.56-9.89-18.56-9.89-6,4.55-15.14,5-20.88,0,0,0-11.32,4.65-18.75,9.89a70.13,70.13,0,0,0-.76,17.83A268.35,268.35,0,0,0,161,138.88Z"/><path class="cls-9" d="M233.61,138.88c-3.81-19.18-7.35-31.35-10.47-38.56-4.09-9.42-7.25-10.66-7.25-10.66-3.63-.33-6.39,30.19-12.64,49.22Z"/><path class="cls-10" d="M210.64,111.17c-1,2.69-2.73,4.88-4.42,7.29-1.55,2.19-5.78,14.33-22.35,13.18-6.85-.48-13.19-7.25-16-14.12a45.77,45.77,0,0,1-2.31-8.53c-.45-2.14-.59-4.91-1.69-6.79-2.07.52-2.3,3.62-3,5.41-.45,1.11-3.45,5.27-3.68,2.15A263.07,263.07,0,0,0,161,138.88h53.54C213.53,127.64,210.55,114.6,210.64,111.17Z"/><path class="cls-11" d="M201.55,64.41c-1.78-1.92-3.73,1.14-3.73,1.14a49.49,49.49,0,0,0,.92-7.28c-4.09-2.26-8.22-4.9-12.1-6.1v0h-.07v0c-3.87,1.2-8,3.84-12.1,6.1a48.69,48.69,0,0,0,.93,7.28s-2-3.06-3.74-1.14,2.61,7,3.62,7.65c0,0,3.61,8.79,8.15,11.71A7.93,7.93,0,0,0,190,83.6c4.54-2.94,8-11.54,8-11.54C198.94,71.42,203.32,66.32,201.55,64.41Z"/><path class="cls-6" d="M198.72,55.13s-6.22,11-21.62,9.95c0,0,.75,1.3-.17,3.67,0,0-1.11-4.34-3.49-3-1.25.71-1.28,2.51,0,4.41.59.86-3.78-.72-3.78-.72S167.88,52.71,179,48.9,198.72,55.13,198.72,55.13Z"/><path class="cls-6" d="M193.58,49.38a13.91,13.91,0,0,0-.23,2.39c0,1.71-2.44,2.93-2.5,4.63.34.36.68.77,1,1.19a15.55,15.55,0,0,1,3.71,7.31c.2.9-.3,1.54,1.1,4,0,0,1.07-4.35,3.73-3.71.53.13,1.57.92.65,3.09-.33.79,2.76-3.24,2.76-3.24S203.7,49,193.58,49.38Z"/><path class="cls-11" d="M172,212.61c.59,1.35,3.66,3.4,2.57,5.23-.55.91-3.32-1-3.93-1.81-.86-1.12-6.82-10.36-7.76-13-.73-2.09-1.42-4.13-2.24-6a30.22,30.22,0,0,0,6-4.78c3,1.4,6.28,3.35,9.27,4.66,1.61.71,3.37,1.2,5,1.81,1,.38,3.23.94,3.33,2.32s-2.11,1.07-3,.89c-1.26-.25-3.57-1.45-4.46,0-1.3,2.1,2.62,4.53,3.94,6s5.71,5.41,2.43,5.74c-.69.07-5.34-3.93-6.07-4.46.15.19,3.13,3.08,3.28,3.28.77,1,3,3.2,2.34,4.27-1.43,2.29-6.35-3.74-7.09-4.55l1.86,2.38c1.6,1.8,2.59,3.33,1.25,3.9C177.05,219.08,173.52,214.13,172,212.61Z"/><path class="cls-9" d="M171.38,194.12l-10.18,6.79s-32.07-41.54-28.59-57.22c4.13-18.56,14.88-39.3,20.82-48.95a17.45,17.45,0,0,1,4.27-5.08c6.12,5.88,9.61,14.09,8.83,21.47-.36,3.29-1.95,5.44-3.72,8.79-5.41,10.27-12,28.07-11.81,29.89C151.35,152.71,171.38,194.12,171.38,194.12Z"/></svg>