<svg id="Capa_1" data-name="Capa 1" xmlns="http://www.w3.org/2000/svg" viewBox="0 0 350 350"><defs><style>.cls-1,.cls-7{fill:#81d0d6;}.cls-1{opacity:0.2;}.cls-2{fill:#305c66;}.cls-3{fill:#fc7d3d;}.cls-4{fill:#fff;}.cls-5{fill:#fcb9ac;}.cls-6{fill:#e8a097;}.cls-8{fill:#54a6a8;}.cls-9{fill:#b74311;}</style></defs><circle class="cls-1" cx="175" cy="175" r="162.43"/><rect class="cls-2" x="142.99" y="58.34" width="183.13" height="200.4"/><rect class="cls-3" x="155.31" y="72.52" width="158.5" height="172.04"/><path class="cls-4" d="M278.06,164.25a7.93,7.93,0,0,0-10-2s11.8-26.05,4.33-38.95a11.6,11.6,0,0,0-2.67-3.14c1.87-8.6-6.37-12.21-12.9-15.55a54.64,54.64,0,0,0-13.19-4.75c-8.54-1.77-18.14-1.39-25.89,2.89-8.67,4.79-17.38,14.56-26.39,12.34-1.86,4.38-1.6,8-.34,13.18A33.67,33.67,0,0,0,198,141.37a101.86,101.86,0,0,0,6.75,20.85,7.93,7.93,0,0,0-10,2c-4.53,5.21,7.47,18.34,10.18,19.92a57.17,57.17,0,0,0,10,19.4,44,44,0,0,0,10.27,9h-.88s-2.52,23.88-7.16,32H254c-4.27-7.47-6.75-28.36-7.11-31.53a43.93,43.93,0,0,0,11-9.46,57,57,0,0,0,10-19.4C270.59,182.59,282.58,169.46,278.06,164.25Z"/><path class="cls-2" d="M229.25,173v-8.46a33.56,33.56,0,0,0,9.09-8.52,14.46,14.46,0,0,0,3-8.46,10.38,10.38,0,0,0-.07-1.23,2.77,2.77,0,0,0-1.12-2.27,4.84,4.84,0,0,0-2.35-.52,2.87,2.87,0,0,0-2,.76,2.49,2.49,0,0,0-.85,2,8.44,8.44,0,0,0,.08,1.23,5.37,5.37,0,0,0,.15.75c.05.16.16.43.33.82s.3.71.4,1l-12.66,2.47c-.08-.28-.22-.7-.41-1.28s-.31-1-.36-1.18-.14-.51-.25-.93a6.68,6.68,0,0,1-.22-1c0-.26-.05-.59-.09-1a12,12,0,0,1-.06-1.22v-.26a13.77,13.77,0,0,1,.69-4.46,10.7,10.7,0,0,1,7.34-6.65,25.18,25.18,0,0,1,7.53-1q8.65,0,13.26,3.49a11.55,11.55,0,0,1,4.6,9.79,20.52,20.52,0,0,1-3.87,11.43,23.14,23.14,0,0,1-9.3,8.37V173Zm-.34,14V176.15h13.67V187Z"/><path class="cls-5" d="M53.7,156.38s4.27,7.6,2.19,9.89c0,0,5.72,5.2,10.2,3S68,165.14,68,165.14s-3.13-1.37-4.69-7.93S53.7,156.38,53.7,156.38Z"/><path class="cls-6" d="M58.22,168a10.36,10.36,0,0,1,2.89-3.1,10.23,10.23,0,0,1,4.82-1.6,15.79,15.79,0,0,1-2.65-6.06c-1.56-6.56-9.58-.83-9.58-.83s4.27,7.6,2.19,9.89A17.44,17.44,0,0,0,58.22,168Z"/><path class="cls-5" d="M50.1,147.36s2.5-6.77,6.66-6.89,6.87.31,7.56,1.86,2,5.85,3.24,7.38,3.68,3.45,3.7,4.19-2.32,1.21-2.42,1.52-.89,5.78-1.7,6.42-9-1.73-10.48-4S50.12,151.58,50.1,147.36Z"/><path class="cls-2" d="M58.59,147.08c1.11.75,3.84,1.5,8-.91s1.37-12.23-7.73-10.64-8.38,4.81-10,5.7a6.37,6.37,0,0,0-3.42,3.91c-1,3.34-.73,7.16,3.93,10.56S57,158.2,57,158.2c.07-1.16-.22-3.07-1.28-3.55a6.67,6.67,0,0,1-1.59-.64,1.79,1.79,0,0,1,1.42-3.16c1,.05,1.7,1.79,2.36,2.39s1.1.43,1.43.26c.65-.32.92-2.41-.75-4.41C57.46,147.8,57.48,146.33,58.59,147.08Z"/><path class="cls-2" d="M39.89,291.11S36.15,298.46,37,300,53.53,308,55.41,307.1s2-3.64-1-5.81c-3.23-2.32-5.35-2-7.26-3.76s0-5.11,0-5.11Z"/><path class="cls-2" d="M82.42,293.16s.5,8.68,1.86,9.77,18.38,1,19.74-.6.51-3.8-3-4.5c-3.11-.62-5.41,0-7.82-.94C91.12,296,90,291.36,90,291.36Z"/><path class="cls-7" d="M78.91,204.69l-22.17,1.37s16.68,39.8,19,44.59,5.87,44.25,5.87,44.25l10.23-1.65s-2.16-40.38-2.7-43.7A405.43,405.43,0,0,0,78.91,204.69Z"/><path class="cls-8" d="M71.4,221.06c.72-3.71,1.23-8.53,2-12.22.32-1.47,2.36-1.54,2.52-3a4.26,4.26,0,0,1-.89-.91l-18.33,1.13s16.68,39.8,19,44.59c.23.47.55,1.24.94,2.24,0-.81,0-1.61-.1-2.41C76.07,244,70.57,225.28,71.4,221.06Z"/><path class="cls-7" d="M72.67,206.57h-19a28.77,28.77,0,0,0-2.19,15c1.15,8.12-1.32,23.86-1.45,25.94s-9.95,36.22-11.41,44l8.73,3.13S61.75,252.8,62.3,252,72.67,206.57,72.67,206.57Z"/><path class="cls-5" d="M80.18,197s3.74,5.42,6.35,5,20.78-12.35,20.78-12.35l-3.82-2.54S89,197,87.57,196.54C86.8,196.32,83,186.4,79.82,179c-3.86-9.16-6.06-10.48-6.06-10.48Z"/><path class="cls-6" d="M80.18,197s3.74,5.42,6.35,5,20.78-12.35,20.78-12.35l-3.82-2.54S89,197,87.57,196.54c-.71-.21-4.93-11.37-8-18.17-4.18-9.24-5.8-9.87-5.8-9.87Z"/><path class="cls-3" d="M81.71,182s-1.56-3.47-2.09-4.5c-4.24-8.33-5.86-9-5.86-9l3.67,16.3C78.91,184,80.93,183.11,81.71,182Z"/><path class="cls-9" d="M81.71,182s-1.56-3.47-2.09-4.5c-4.24-8.33-5.86-9-5.86-9l3.67,16.3C78.91,184,80.93,183.11,81.71,182Z"/><path class="cls-3" d="M50.12,213.32s17,4.27,31.59-1c0,0-3.11-14.1-3.11-21.68,0-6.44-2-20.23-5.4-22.66A20,20,0,0,0,67.76,165s-1.15,2.81-3.75,3.43-7.63-2.69-7.63-2.69-10.27,4-11.64,6.27c-2.82,4.61,4.66,17.64,6.33,24.41S50.12,213.32,50.12,213.32Z"/><path class="cls-9" d="M63.6,214.9a82.75,82.75,0,0,1-1.15-9.61,24,24,0,0,1,.14-8c-.2-.7-.41-1.41-.58-2-.89-3.1-.8-10-4.46-13.51-2.12-2-4.7-5.15-7.84-5.69-3.8-.66-2-.68-5.34-1.46.15,1.25-1.53,3.62-1,5.32,2.19,5.43,6.6,12.14,7.69,16.54,1.66,6.77-1,16.88-1,16.88A69.74,69.74,0,0,0,63.6,214.9Z"/><path class="cls-2" d="M165.82,199.89a42.17,42.17,0,1,0-58.26-25.7L46.49,203.68a5.9,5.9,0,0,0-2.81,7.84l.06.11a5.88,5.88,0,0,0,7.83,2.8l61.07-29.49A42.15,42.15,0,0,0,165.82,199.89Z"/><path class="cls-5" d="M55.26,186.88s5.42,11.14,6.56,11.24,20.87-1.45,22.3-2.29A16.15,16.15,0,0,0,86.33,194a11.21,11.21,0,0,1,1-.8,12.2,12.2,0,0,0,1.27-.72c.31-.26,1.38-1.86,2-1.71s.44.49.36.88-.8,1-1.13,1.33c-.19.2-.75.78-.66,1.1s1.12-.33,1.34-.47a4,4,0,0,0,.91-.78,11.45,11.45,0,0,0,.83-1.11c.16-.23.31-.48.46-.71a12.17,12.17,0,0,0,.72-1.14c.17-.31.44-.66.83-.45s0,1-.16,1.27a10.26,10.26,0,0,0-.49,1c-.09.23-.47.61-.34.88a5.31,5.31,0,0,0,1.08-1.23c.2-.27,1.21-1.92,1.67-1.6.73.51-.14,1.6-.48,2a4.76,4.76,0,0,1-.76.85c-.12.1-.67.68-.57.67.7-.06,1.2-1.12,1.63-1.61.27-.31,1.11-1.2,1.23-.31a1.38,1.38,0,0,1-.36.94,4.9,4.9,0,0,1-1.09,1.18,3.77,3.77,0,0,0-.71.8c.52,0,1.54-1.34,2-1,.3.23,0,.86-.2,1a16.83,16.83,0,0,1-4.58,3.08,48.89,48.89,0,0,1-5.25,2.43c-2.56,1-24.26,7.81-26.86,7.5s-9.47-13.61-11.45-17.48S55.26,186.88,55.26,186.88Z"/><path class="cls-3" d="M47.87,192.92s6.87-2.55,10.83-6.12c0,0-6.51-20.38-13.06-15.72C38.18,176.4,47.87,192.92,47.87,192.92Z"/><path class="cls-5" d="M103.53,188.28c.34-.22.81,0,1.4.54-.77-1-1.7-2-.79-2.1s1.49,1.23,2.13,1.66c-.34-.48-2.36-1.88-1.57-2.93.46-.63,2.62,1.82,3.07,2.31-.42-.4-2.24-2.31-1.28-2.71s2.12,1.29,2.74,1.81c.45.38,1.09.7,1.19,1.32.21,1.22-1.57,2-2.49,2.31a4.79,4.79,0,0,1-3.63-.61C103.67,189.51,103.19,188.51,103.53,188.28Z"/><circle class="cls-4" cx="147.81" cy="161.76" r="32.49" transform="translate(-62.23 224.18) rotate(-64.13)"/></svg>