<svg id="Capa_1" data-name="Capa 1" xmlns="http://www.w3.org/2000/svg" viewBox="0 0 348.43 338.14"><defs><style>.cls-1,.cls-7{fill:#81d0d6;}.cls-1{opacity:0.2;}.cls-2{fill:#305c66;}.cls-3{fill:#fefefe;}.cls-4{fill:#9c9eb9;}.cls-5{fill:#d0d1de;}.cls-6{fill:#fc7d3d;}.cls-8{fill:#fcb9ac;}.cls-9{fill:#54a6a8;}.cls-10{fill:#e8a097;}.cls-11{fill:#d65e29;}</style></defs><circle class="cls-1" cx="174.78" cy="170.45" r="162.43"/><rect class="cls-2" x="66.13" y="207.4" width="217.3" height="31.91"/><rect class="cls-2" x="45.51" y="55.91" width="258.54" height="173.31" rx="13.33"/><rect class="cls-3" x="57.41" y="67.39" width="234.73" height="148.55"/><path class="cls-2" d="M20.31,275.5v4.73c0,2.62,2.85,4.75,6.37,4.75H322.87c3.52,0,6.38-2.13,6.38-4.75V275.5Z"/><path class="cls-2" d="M174.78,238.94H48c-.43.46-20.36,18.3-26.45,31.56-2.6,5.67-.9,8.65,3.94,8.65H324.09c4.85,0,6.55-3,3.94-8.65-6.09-13.26-26-31.1-26.45-31.56Z"/><polygon class="cls-4" points="313.2 272.37 43.01 272.37 61.74 244.65 294.48 244.65 313.2 272.37"/><path class="cls-5" d="M309.92,267.5l-.59-.86h-18l-3.36-6.73h16.85l-.59-.86H287.51l-3.36-6.73h15.51l-.58-.87H283.72l-3.4-6.8h-1.55l3.34,6.8h-19.3l-2.71-6.8h-1.56l2.66,6.8H241.89l-2-6.8h-1.56l2,6.8H221l-1.32-6.8H218.1l1.27,6.8h-19.3l-.63-6.8h-1.56l.58,6.8H180.13v-6.8h-1.71v6.8h-19l.58-6.8h-1.56l-.63,6.8h-19.3l1.27-6.8h-1.56l-1.32,6.8H117.6l2-6.8H118l-2,6.8H96.69l2.65-6.8H97.79l-2.71,6.8H75.78l3.34-6.8H77.56l-3.39,6.8h-17l-.59.87H73.73l-3.35,6.73H52l-.58.86H69.94l-3.36,6.73H46.89l-.59.86H66.15l-2.43,4.87H65.5l2.39-4.87H88.7l-1.94,4.87h1.78l1.89-4.87h20.81l-1.44,4.87h1.77L113,267.5h20.8l-.94,4.87h1.77l.91-4.87h20.81l-.46,4.87h1.78l.41-4.87h20.36v4.87h1.71V267.5h19.69l.42,4.87H202l-.45-4.87h20.81l.9,4.87h1.78l-1-4.87h20.81l1.4,4.87h1.78l-1.44-4.87h20.8l1.9,4.87h1.78l-1.94-4.87H290l2.39,4.87h1.77l-2.43-4.87ZM96.35,252.32h19.39l-2,6.73h-20Zm-21,0H94.73l-2.67,6.73h-20ZM89,266.64H68.31l3.31-6.73H91.71Zm22.46,0H90.77l2.62-6.73h20.1Zm22.45,0H113.23l1.93-6.73h20.1Zm1.48-7.59h-20l1.94-6.73h19.39Zm21,7.59H135.68l1.26-6.73H157Zm.7-7.59h-20l1.25-6.73h19.39Zm21.31,7.59H158.14l.57-6.73h19.71Zm0-7.59H158.78l.58-6.73h19.06Zm1.71-6.73h18.4l.57,6.73h-19Zm0,14.32v-6.73h19.05l.57,6.73Zm102.41-14.32,3.3,6.73h-20l-2.68-6.73Zm-21,0,2.63,6.73h-20l-2-6.73Zm-61.38,0h19.38l1.26,6.73h-20Zm1.33,14.32-.63-6.73H221l1.25,6.73Zm19.67-14.32h19.38l1.94,6.73h-20Zm2.78,14.32-1.3-6.73h20.09l1.94,6.73Zm22.46,0-2-6.73h20.09l2.63,6.73Zm22.46,0-2.68-6.73h20.1l3.3,6.73Z"/><path class="cls-2" d="M174.78,279.15H161.65a2.72,2.72,0,0,0,.66,1.81,1.42,1.42,0,0,0,1,.37h22.95a1.44,1.44,0,0,0,1-.37,2.75,2.75,0,0,0,.65-1.81Z"/><path class="cls-5" d="M267.36,202.42H82.19v-113H267.36ZM85.65,199H263.9V92.89H85.65Z"/><rect class="cls-6" x="223.21" y="117.87" width="17.22" height="73.7"/><rect class="cls-5" x="191.3" y="157.68" width="17.22" height="33.89"/><rect class="cls-7" x="159.39" y="149.48" width="17.22" height="42.09"/><rect class="cls-5" x="127.49" y="125.64" width="17.22" height="65.93"/><rect class="cls-5" x="95.58" y="140.11" width="17.22" height="51.46"/><polygon class="cls-2" points="200.29 144.53 167.59 138.03 136.07 107.92 104.76 135.58 103.62 134.28 136.12 105.57 168.42 136.44 199.53 142.61 231.12 98.14 232.52 99.14 200.29 144.53"/><path class="cls-6" d="M108.08,134.93a3.89,3.89,0,1,1-3.89-3.89A3.89,3.89,0,0,1,108.08,134.93Z"/><circle class="cls-6" cx="135.88" cy="106.74" r="3.89"/><path class="cls-6" d="M171.89,137.2a3.89,3.89,0,1,1-3.89-3.89A3.89,3.89,0,0,1,171.89,137.2Z"/><path class="cls-6" d="M203.8,142.7a3.89,3.89,0,1,1-3.89-3.88A3.89,3.89,0,0,1,203.8,142.7Z"/><path class="cls-6" d="M235.71,99.4a3.89,3.89,0,1,1-3.89-3.89A3.89,3.89,0,0,1,235.71,99.4Z"/><path class="cls-8" d="M135.34,128.26a7.2,7.2,0,0,0,3.33-1.73A4.22,4.22,0,0,1,140,125.4a9,9,0,0,0,1.65-1.16,3.58,3.58,0,0,1,1.74-1c.83-.08.39.89,0,1.49s-2.69,1.56-2.58,2.38,2.79-.45,3.32-.71c1.26-.61,1.34-1.66,2.09-2.68.43-.6.81-.74,1.08.07.2.61-.22,1.23-.52,1.73a7.58,7.58,0,0,1-2.59,2.63,9,9,0,0,0,2.67-2.2c.42-.51,1.84-3,2.69-2.4,1.72,1.19-3,5.57-4.13,5.91a10.45,10.45,0,0,0,2.82-2.05c.52-.46,1.68-1.6,1.88-.38.3,1.81-3.22,3.12-4.69,4a12.47,12.47,0,0,0,3-1.35c1.31-.66,1.34.54.11,1.45a16.4,16.4,0,0,1-1.92,1.09c-2.68,1.3-4.34,1.32-7.18,1-1-.11-3,.76-3.62.11C134.68,132.1,135.3,129.72,135.34,128.26Z"/><path class="cls-6" d="M136.09,127.88l2.09,6.91s-24.43,6.3-30.37,7.23-19-14-19-14-4.45-10.8-1.12-10.66c2.56.11,21.27,14.39,22.3,14.94S136.09,127.88,136.09,127.88Z"/><path class="cls-8" d="M72.1,251.21s-.18,4.67.61,6.87,6.43,5.55,6.43,5.55-5.1,1-7.06-.53-6.61-9.43-6.3-10.47,1.71-4.21,1.71-4.21Z"/><path class="cls-8" d="M102.5,248.35s-.18,4.67.61,6.86,6.43,5.56,6.43,5.56-5.1,1-7.06-.53-6.61-9.44-6.3-10.47,1.71-4.21,1.71-4.21Z"/><path class="cls-2" d="M66.94,251.21s-4.28,1.43-3.21,5.17a32.63,32.63,0,0,1,.89,8.57h1.25s.27-5.36,1.07-5.18S69.53,265,71.31,265H81.39s1.07-1.08,0-1.7-7.9-.36-8.68-1.87S66.94,251.21,66.94,251.21Z"/><path class="cls-2" d="M97.58,248.23s-4.28,1.42-3.21,5.17a32.57,32.57,0,0,1,.89,8.56h1.25s.27-5.35,1.07-5.17S100.17,262,102,262H112s1.07-1.07,0-1.69-7.9-.36-8.68-1.88S97.58,248.23,97.58,248.23Z"/><path class="cls-7" d="M94.75,155.13s-12,4.21-20.69,0c0,0-5.26,4.42-6.09,13.44a48.93,48.93,0,0,0,.35,10.14c.6,5,2.07,18.17,1.15,26.28-1.33,11.89-5,46.36-5,46.36l8.26,1.28s7.6-41.61,8.5-46.74,3.79-26,3.79-26,5.14,16.13,6.47,23.94c.2,1.2,3.87,45.38,3.87,45.38l8-.05s-.44-49.07-.44-46.49C102.91,203.72,100.74,169.57,94.75,155.13Z"/><path class="cls-9" d="M90.58,186.36c-1.79-5.46-2.9-8.19-6.6-13.09.38,2.24.72,4.47,1,6.73l0-.11s4.4,13.8,6.11,22.06C90.92,193.05,91.91,190.38,90.58,186.36Z"/><path class="cls-10" d="M86.26,106.12c-.83-.18-4.8-8.56-6.51-10.19-.81,5.72-4.27,19.3-4.27,19.3,4.2,4.51,12.58,1.75,12.58,1.75A28.34,28.34,0,0,1,86.26,106.12Z"/><path class="cls-8" d="M84.59,86.15s8.16,1.84,9.72,4.22,1.55,8.56,2.42,10.19c.52,1,1,1.79,1.25,2.37s-.35.81-1.06,1.06a1.24,1.24,0,0,0-.76.79c-.48,1.5-1.83,5.31-3.18,5.84-1.68.67-10,.41-12.48-6.82S79.37,84.6,84.59,86.15Z"/><path class="cls-6" d="M76.73,112.4a101.6,101.6,0,0,0,11.19,4.25s6.58,13,7,16.62,3.83,28.34,3.83,28.34-13,8.29-31.92,1.72c0,0,4.54-19.47,3.5-27.16S70.22,118.1,76.73,112.4Z"/><path class="cls-11" d="M74.44,165.26c-.22-8.27,1.67-15.79,1.84-24.07.14-6.68-2.62-10.49-6-14.59a39.14,39.14,0,0,0,.06,9.57c1,7.69-3.5,27.16-3.5,27.16A46.39,46.39,0,0,0,74.44,165.26Z"/><path class="cls-2" d="M66.86,135.29c4.59-3.82,2.72-7.64,7.34-11.27.33-.27.67-.52,1-.78.23-2-4.57-1-3.25-3,1.86-2.82,9.65-7.08,9.48-9.82a4.8,4.8,0,0,1,.19-2.57c.4-2.12,1.29-2.53-.37-4.08-1.16-1.08-2.14-2.25-1.22-3.89.76-1.34,2-1.73,3-.48.27.33,1.64,3.09,2,1.54.1-.44-.48-1.28-.53-1.76a1.94,1.94,0,0,1,.55-1.76c.82-.87,2-1.33,2.88-2.21,1.06-1.1,1.2-2.55,2.74-3.15A4,4,0,0,1,93.13,92c.36.1,1.91,1.14,2.16,1,2.64-1,1.46-5.11-.35-6.37a19.83,19.83,0,0,0-11.2-3.78C79,83,74.6,86.66,71.83,90.24c-2,2.59-1.87,5.34-3.32,8.14-1.32,2.54-4.18,3.81-5.89,6.1s-1.62,5-1,7.48c.49,2,1,3.78.72,5.81-.4,2.52-2.43,4.38-3.11,6.82a10.71,10.71,0,0,0-.12,6.93C60.32,136.05,63,137.28,66.86,135.29Z"/><path class="cls-8" d="M59.78,176.45a7,7,0,0,0,.88,3.46,4.08,4.08,0,0,1,.77,1.49,8.58,8.58,0,0,0,.71,1.78,3.45,3.45,0,0,1,.53,1.83c-.11.79-.92.17-1.39-.32s-.86-2.84-1.65-2.92-.19,2.69-.06,3.24c.29,1.3,1.25,1.61,2,2.52.47.54.51.92-.3,1-.61.06-1.09-.46-1.49-.85a7.25,7.25,0,0,1-1.88-3,8.47,8.47,0,0,0,1.47,3c.38.5,2.37,2.35,1.63,3-1.48,1.34-4.51-4-4.58-5.13a9.81,9.81,0,0,0,1.28,3.07c.32.58,1.12,1.91-.06,1.83-1.74-.12-2.19-3.68-2.67-5.23a11.65,11.65,0,0,0,.58,3.11c.33,1.37-.78,1.13-1.36-.21a13.46,13.46,0,0,1-.6-2,10.71,10.71,0,0,1,.62-6.89c.33-.93-.05-3,.69-3.39C56.36,175,58.44,176.09,59.78,176.45Z"/><path class="cls-6" d="M60.76,176.53l-7.52.4s-.09-22.22,1.91-29.77,16.24-27.87,19.48-29.42c3.9-1.85,15.49,3.1,7,9.7s-16.55,22.31-16.88,22.95S60.76,176.53,60.76,176.53Z"/></svg>